G04*
G04 #@! TF.GenerationSoftware,Altium Limited,Altium Designer,24.9.1 (31)*
G04*
G04 Layer_Physical_Order=1*
G04 Layer_Color=255*
%FSLAX26Y26*%
%MOIN*%
G70*
G04*
G04 #@! TF.SameCoordinates,85691A34-BE1F-424B-AAFF-A29D0EFE2AC2*
G04*
G04*
G04 #@! TF.FilePolarity,Positive*
G04*
G01*
G75*
G04:AMPARAMS|DCode=17|XSize=39.37mil|YSize=354.331mil|CornerRadius=0.787mil|HoleSize=0mil|Usage=FLASHONLY|Rotation=90.000|XOffset=0mil|YOffset=0mil|HoleType=Round|Shape=RoundedRectangle|*
%AMROUNDEDRECTD17*
21,1,0.039370,0.352756,0,0,90.0*
21,1,0.037795,0.354331,0,0,90.0*
1,1,0.001575,0.176378,0.018898*
1,1,0.001575,0.176378,-0.018898*
1,1,0.001575,-0.176378,-0.018898*
1,1,0.001575,-0.176378,0.018898*
%
%ADD17ROUNDEDRECTD17*%
G04:AMPARAMS|DCode=18|XSize=59.055mil|YSize=433.071mil|CornerRadius=1.181mil|HoleSize=0mil|Usage=FLASHONLY|Rotation=90.000|XOffset=0mil|YOffset=0mil|HoleType=Round|Shape=RoundedRectangle|*
%AMROUNDEDRECTD18*
21,1,0.059055,0.430709,0,0,90.0*
21,1,0.056693,0.433071,0,0,90.0*
1,1,0.002362,0.215354,0.028346*
1,1,0.002362,0.215354,-0.028346*
1,1,0.002362,-0.215354,-0.028346*
1,1,0.002362,-0.215354,0.028346*
%
%ADD18ROUNDEDRECTD18*%
%ADD19R,0.013969X0.065153*%
G04:AMPARAMS|DCode=20|XSize=37.008mil|YSize=40.157mil|CornerRadius=3.701mil|HoleSize=0mil|Usage=FLASHONLY|Rotation=0.000|XOffset=0mil|YOffset=0mil|HoleType=Round|Shape=RoundedRectangle|*
%AMROUNDEDRECTD20*
21,1,0.037008,0.032756,0,0,0.0*
21,1,0.029606,0.040157,0,0,0.0*
1,1,0.007402,0.014803,-0.016378*
1,1,0.007402,-0.014803,-0.016378*
1,1,0.007402,-0.014803,0.016378*
1,1,0.007402,0.014803,0.016378*
%
%ADD20ROUNDEDRECTD20*%
%ADD21R,0.070079X0.124016*%
%ADD22R,0.039370X0.043307*%
%ADD23R,0.027559X0.027559*%
%ADD33C,0.078740*%
G04:AMPARAMS|DCode=34|XSize=141.732mil|YSize=70.866mil|CornerRadius=17.716mil|HoleSize=0mil|Usage=FLASHONLY|Rotation=90.000|XOffset=0mil|YOffset=0mil|HoleType=Round|Shape=RoundedRectangle|*
%AMROUNDEDRECTD34*
21,1,0.141732,0.035433,0,0,90.0*
21,1,0.106299,0.070866,0,0,90.0*
1,1,0.035433,0.017717,0.053150*
1,1,0.035433,0.017717,-0.053150*
1,1,0.035433,-0.017717,-0.053150*
1,1,0.035433,-0.017717,0.053150*
%
%ADD34ROUNDEDRECTD34*%
%ADD42R,0.023622X0.023622*%
%ADD43C,0.027559*%
%ADD44C,0.039370*%
%ADD45C,0.011811*%
%ADD46C,0.070866*%
%ADD47R,0.078740X0.078740*%
%ADD48R,0.059055X0.059055*%
%ADD49C,0.059055*%
%ADD50R,0.078740X0.078740*%
%ADD51R,0.072835X0.072835*%
%ADD52C,0.050000*%
G36*
X4338828Y3604159D02*
Y3573150D01*
X4236850D01*
Y3554276D01*
X4231850Y3553314D01*
X4222635Y3562530D01*
X4210515Y3569528D01*
X4196997Y3573150D01*
X4183003D01*
X4177607Y3571704D01*
X4142726Y3606584D01*
X4136969Y3611002D01*
X4130265Y3613779D01*
X4123071Y3614726D01*
X4062277D01*
X4055083Y3613779D01*
X4048379Y3611002D01*
X4042622Y3606584D01*
X3995345Y3559307D01*
X3990927Y3553550D01*
X3988150Y3546846D01*
X3987203Y3539652D01*
Y3390000D01*
X3988150Y3382806D01*
X3990927Y3376102D01*
X3995345Y3370345D01*
X4142203Y3223486D01*
Y3138065D01*
X4136400Y3135661D01*
X4129820Y3130613D01*
X4124772Y3124034D01*
X4122706Y3119046D01*
X4117294D01*
X4115228Y3124034D01*
X4110180Y3130613D01*
X4103600Y3135661D01*
X4095939Y3138835D01*
X4087716Y3139917D01*
X4052284D01*
X4044061Y3138835D01*
X4036400Y3135661D01*
X4029820Y3130613D01*
X4024772Y3124034D01*
X4022706Y3119046D01*
X4017294D01*
X4015228Y3124034D01*
X4010180Y3130613D01*
X4003600Y3135661D01*
X3997797Y3138065D01*
Y3209223D01*
X4000217Y3210620D01*
X4009380Y3219783D01*
X4015859Y3231005D01*
X4019213Y3243521D01*
Y3256479D01*
X4015859Y3268995D01*
X4009380Y3280217D01*
X4000217Y3289380D01*
X3988995Y3295859D01*
X3976479Y3299213D01*
X3963521D01*
X3951005Y3295859D01*
X3939783Y3289380D01*
X3930620Y3280217D01*
X3924141Y3268995D01*
X3920787Y3256479D01*
Y3243521D01*
X3924141Y3231005D01*
X3930620Y3219783D01*
X3939783Y3210620D01*
X3942203Y3209223D01*
Y3138065D01*
X3936400Y3135661D01*
X3929820Y3130613D01*
X3924772Y3124034D01*
X3921598Y3116372D01*
X3920615Y3108908D01*
X3915572D01*
X3914720Y3115385D01*
X3911927Y3122127D01*
X3907484Y3127917D01*
X3901694Y3132360D01*
X3894952Y3135153D01*
X3887716Y3136105D01*
X3875000D01*
Y3055000D01*
Y2973895D01*
X3887716D01*
X3894952Y2974847D01*
X3901694Y2977640D01*
X3907484Y2982083D01*
X3911927Y2987873D01*
X3914720Y2994615D01*
X3915572Y3001092D01*
X3920615D01*
X3921598Y2993628D01*
X3924772Y2985966D01*
X3929820Y2979387D01*
X3936400Y2974339D01*
X3944061Y2971165D01*
X3952284Y2970083D01*
X3980815D01*
X3982729Y2965463D01*
X3861881Y2844615D01*
X3858276Y2839917D01*
X3852284D01*
X3844061Y2838835D01*
X3836400Y2835661D01*
X3829820Y2830613D01*
X3824772Y2824034D01*
X3822706Y2819046D01*
X3817294D01*
X3815228Y2824034D01*
X3810180Y2830613D01*
X3803600Y2835661D01*
X3795939Y2838835D01*
X3787716Y2839917D01*
X3752284D01*
X3744061Y2838835D01*
X3736400Y2835661D01*
X3729820Y2830613D01*
X3724772Y2824034D01*
X3722706Y2819046D01*
X3717294D01*
X3715228Y2824034D01*
X3710180Y2830613D01*
X3703600Y2835661D01*
X3695939Y2838835D01*
X3687716Y2839917D01*
X3652284D01*
X3644061Y2838835D01*
X3636400Y2835661D01*
X3629820Y2830613D01*
X3624772Y2824034D01*
X3622706Y2819046D01*
X3617294D01*
X3615228Y2824034D01*
X3610180Y2830613D01*
X3603600Y2835661D01*
X3595939Y2838835D01*
X3587716Y2839917D01*
X3552284D01*
X3544061Y2838835D01*
X3536400Y2835661D01*
X3529820Y2830613D01*
X3524772Y2824034D01*
X3522706Y2819046D01*
X3517294D01*
X3515228Y2824034D01*
X3510180Y2830613D01*
X3503600Y2835661D01*
X3497797Y2838065D01*
Y2890000D01*
X3496850Y2897194D01*
X3494073Y2903898D01*
X3489655Y2909655D01*
X3455477Y2943834D01*
X3449720Y2948251D01*
X3443016Y2951028D01*
X3435821Y2951975D01*
X3277440D01*
X3263952Y2965463D01*
X3265865Y2970083D01*
X3287716D01*
X3295939Y2971165D01*
X3303600Y2974339D01*
X3310180Y2979387D01*
X3315228Y2985966D01*
X3317294Y2990954D01*
X3322706D01*
X3324772Y2985966D01*
X3329820Y2979387D01*
X3336400Y2974339D01*
X3344061Y2971165D01*
X3352284Y2970083D01*
X3387716D01*
X3395939Y2971165D01*
X3403600Y2974339D01*
X3410180Y2979387D01*
X3415228Y2985966D01*
X3417294Y2990954D01*
X3422706D01*
X3424772Y2985966D01*
X3429820Y2979387D01*
X3436400Y2974339D01*
X3444061Y2971165D01*
X3452284Y2970083D01*
X3487716D01*
X3495939Y2971165D01*
X3503600Y2974339D01*
X3510180Y2979387D01*
X3515228Y2985966D01*
X3517294Y2990954D01*
X3522706D01*
X3524772Y2985966D01*
X3529820Y2979387D01*
X3536400Y2974339D01*
X3544061Y2971165D01*
X3552284Y2970083D01*
X3587716D01*
X3595939Y2971165D01*
X3603600Y2974339D01*
X3610180Y2979387D01*
X3615228Y2985966D01*
X3617294Y2990954D01*
X3622706D01*
X3624772Y2985966D01*
X3629820Y2979387D01*
X3636400Y2974339D01*
X3644061Y2971165D01*
X3652284Y2970083D01*
X3687716D01*
X3695939Y2971165D01*
X3703600Y2974339D01*
X3710180Y2979387D01*
X3715228Y2985966D01*
X3717294Y2990954D01*
X3722706D01*
X3724772Y2985966D01*
X3729820Y2979387D01*
X3736400Y2974339D01*
X3744061Y2971165D01*
X3752284Y2970083D01*
X3787716D01*
X3795939Y2971165D01*
X3803600Y2974339D01*
X3810180Y2979387D01*
X3815228Y2985966D01*
X3818402Y2993628D01*
X3819385Y3001092D01*
X3824428D01*
X3825280Y2994615D01*
X3828073Y2987873D01*
X3832516Y2982083D01*
X3838306Y2977640D01*
X3845048Y2974847D01*
X3852284Y2973895D01*
X3865000D01*
Y3055000D01*
Y3136105D01*
X3852284D01*
X3845048Y3135153D01*
X3838306Y3132360D01*
X3832516Y3127917D01*
X3828073Y3122127D01*
X3825280Y3115385D01*
X3824428Y3108908D01*
X3819385D01*
X3818402Y3116372D01*
X3815228Y3124034D01*
X3810180Y3130613D01*
X3803600Y3135661D01*
X3795939Y3138835D01*
X3787716Y3139917D01*
X3759826D01*
X3682797Y3216947D01*
Y3469223D01*
X3685217Y3470620D01*
X3694380Y3479783D01*
X3695777Y3482203D01*
X3835000D01*
X3842194Y3483150D01*
X3848898Y3485927D01*
X3854655Y3490345D01*
X3890821Y3526511D01*
X3893521Y3525787D01*
X3906479D01*
X3918995Y3529141D01*
X3930217Y3535620D01*
X3939380Y3544783D01*
X3945859Y3556005D01*
X3949213Y3568521D01*
Y3581479D01*
X3945859Y3593995D01*
X3939380Y3605217D01*
X3930217Y3614380D01*
X3918995Y3620859D01*
X3906479Y3624213D01*
X3893521D01*
X3881005Y3620859D01*
X3869783Y3614380D01*
X3860620Y3605217D01*
X3854141Y3593995D01*
X3850787Y3581479D01*
Y3568521D01*
X3851511Y3565821D01*
X3823486Y3537797D01*
X3695777D01*
X3694380Y3540217D01*
X3685217Y3549380D01*
X3673995Y3555859D01*
X3661479Y3559213D01*
X3648521D01*
X3636005Y3555859D01*
X3624783Y3549380D01*
X3615620Y3540217D01*
X3609141Y3528995D01*
X3608536Y3526738D01*
X3606239Y3525786D01*
X3600482Y3521369D01*
X3405901Y3326788D01*
X3401834Y3329743D01*
X3404528Y3339796D01*
Y3340000D01*
X3370000D01*
Y3305472D01*
X3370204D01*
X3380257Y3308166D01*
X3383212Y3304099D01*
X3368996Y3289883D01*
X3321693D01*
Y3203269D01*
X3408307D01*
Y3250572D01*
X3622203Y3464469D01*
X3627203Y3462398D01*
Y3205433D01*
X3628150Y3198239D01*
X3630927Y3191535D01*
X3635345Y3185778D01*
X3676586Y3144537D01*
X3674672Y3139917D01*
X3652284D01*
X3644061Y3138835D01*
X3636400Y3135661D01*
X3629820Y3130613D01*
X3624772Y3124034D01*
X3622706Y3119046D01*
X3617294D01*
X3615228Y3124034D01*
X3610180Y3130613D01*
X3603600Y3135661D01*
X3595939Y3138835D01*
X3587716Y3139917D01*
X3552284D01*
X3544061Y3138835D01*
X3536400Y3135661D01*
X3529820Y3130613D01*
X3524772Y3124034D01*
X3522706Y3119046D01*
X3517294D01*
X3515228Y3124034D01*
X3510180Y3130613D01*
X3503600Y3135661D01*
X3495939Y3138835D01*
X3487716Y3139917D01*
X3452284D01*
X3444061Y3138835D01*
X3436400Y3135661D01*
X3429820Y3130613D01*
X3424772Y3124034D01*
X3422706Y3119046D01*
X3417294D01*
X3415228Y3124034D01*
X3410180Y3130613D01*
X3403600Y3135661D01*
X3395939Y3138835D01*
X3387716Y3139917D01*
X3352284D01*
X3344061Y3138835D01*
X3336400Y3135661D01*
X3329820Y3130613D01*
X3324772Y3124034D01*
X3322706Y3119046D01*
X3317294D01*
X3315228Y3124034D01*
X3310180Y3130613D01*
X3303600Y3135661D01*
X3295939Y3138835D01*
X3287716Y3139917D01*
X3252284D01*
X3244061Y3138835D01*
X3239805Y3137072D01*
X3234805Y3140413D01*
Y3392520D01*
X3233858Y3399715D01*
X3231081Y3406419D01*
X3226663Y3412175D01*
X2983728Y3655111D01*
Y3666378D01*
X2982371Y3673198D01*
X2978508Y3678981D01*
X2972726Y3682844D01*
X2965905Y3684201D01*
X2936299D01*
X2929478Y3682844D01*
X2923696Y3678981D01*
X2922500Y3677190D01*
X2917500D01*
X2916304Y3678981D01*
X2910522Y3682844D01*
X2903701Y3684201D01*
X2874095D01*
X2867274Y3682844D01*
X2861492Y3678981D01*
X2857629Y3673198D01*
X2857113Y3670603D01*
X2781734D01*
X2777672Y3670068D01*
X2775966Y3671850D01*
X2778101Y3676850D01*
X2793150D01*
Y3771247D01*
X4171740D01*
X4338828Y3604159D01*
D02*
G37*
G36*
X4095000Y3370630D02*
X4096500D01*
X4109056Y3373994D01*
X4120314Y3380494D01*
X4129506Y3389686D01*
X4135254Y3399642D01*
X4140047Y3399498D01*
X4140574Y3399309D01*
X4147470Y3387365D01*
X4157365Y3377470D01*
X4169485Y3370472D01*
X4183003Y3366850D01*
X4196997D01*
X4202393Y3368296D01*
X4342203Y3228486D01*
Y3138065D01*
X4336400Y3135661D01*
X4329820Y3130613D01*
X4324772Y3124034D01*
X4322706Y3119046D01*
X4317294D01*
X4315228Y3124034D01*
X4310180Y3130613D01*
X4303600Y3135661D01*
X4295939Y3138835D01*
X4287717Y3139917D01*
X4252283D01*
X4244061Y3138835D01*
X4236400Y3135661D01*
X4229820Y3130613D01*
X4224772Y3124034D01*
X4222706Y3119046D01*
X4217294D01*
X4215228Y3124034D01*
X4210180Y3130613D01*
X4203600Y3135661D01*
X4197797Y3138065D01*
Y3235000D01*
X4196850Y3242194D01*
X4194073Y3248898D01*
X4189655Y3254655D01*
X4077158Y3367153D01*
X4079746Y3371636D01*
X4083500Y3370630D01*
X4085000D01*
Y3420000D01*
X4095000D01*
Y3370630D01*
D02*
G37*
G36*
X2667296Y3831247D02*
X2664195Y3828867D01*
X2641133Y3805805D01*
X2635769Y3798814D01*
X2632397Y3790673D01*
X2631247Y3781938D01*
Y3488508D01*
X2632397Y3479772D01*
X2635769Y3471631D01*
X2641133Y3464640D01*
X2679955Y3425818D01*
X2686946Y3420454D01*
X2687607Y3420180D01*
X2690472Y3409485D01*
X2697470Y3397365D01*
X2707365Y3387470D01*
X2715303Y3382887D01*
Y3377113D01*
X2707365Y3372530D01*
X2697470Y3362635D01*
X2690472Y3350515D01*
X2686850Y3336997D01*
Y3323003D01*
X2690472Y3309485D01*
X2697470Y3297365D01*
X2707365Y3287470D01*
X2719309Y3280574D01*
X2719498Y3280047D01*
X2719642Y3275254D01*
X2709686Y3269506D01*
X2700494Y3260314D01*
X2693994Y3249056D01*
X2690630Y3236500D01*
Y3235000D01*
X2740000D01*
X2789370D01*
Y3236500D01*
X2786006Y3249056D01*
X2779506Y3260314D01*
X2770314Y3269506D01*
X2760358Y3275254D01*
X2760502Y3280047D01*
X2760691Y3280574D01*
X2772635Y3287470D01*
X2782530Y3297365D01*
X2789528Y3309485D01*
X2793150Y3323003D01*
Y3336997D01*
X2789528Y3350515D01*
X2782530Y3362635D01*
X2772635Y3372530D01*
X2764697Y3377113D01*
Y3382887D01*
X2772635Y3387470D01*
X2782530Y3397365D01*
X2789528Y3409485D01*
X2793150Y3423003D01*
Y3436997D01*
X2789528Y3450515D01*
X2782530Y3462635D01*
X2772635Y3472530D01*
X2764697Y3477113D01*
Y3482887D01*
X2772635Y3487470D01*
X2782530Y3497365D01*
X2789528Y3509485D01*
X2791008Y3515010D01*
X2868030D01*
X2868827Y3514310D01*
Y3358048D01*
X2870355Y3350367D01*
X2874706Y3343856D01*
X2897429Y3321132D01*
Y3167432D01*
X2861492D01*
Y3197630D01*
X2863811Y3198969D01*
X2871031Y3206189D01*
X2876137Y3215032D01*
X2878780Y3224895D01*
Y3235105D01*
X2876137Y3244968D01*
X2871031Y3253811D01*
X2863811Y3261031D01*
X2854968Y3266137D01*
X2845105Y3268780D01*
X2834895D01*
X2825032Y3266137D01*
X2816189Y3261031D01*
X2808969Y3253811D01*
X2803863Y3244968D01*
X2801220Y3235105D01*
Y3224895D01*
X2803863Y3215032D01*
X2808969Y3206189D01*
X2816189Y3198969D01*
X2821351Y3195989D01*
Y3163653D01*
X2813264D01*
Y3167432D01*
X2721736D01*
Y3146147D01*
X2687178D01*
X2679497Y3144619D01*
X2672986Y3140268D01*
X2624258Y3091540D01*
X2619508Y3088366D01*
X2615157Y3081855D01*
X2614629Y3079201D01*
X2611299D01*
X2604478Y3077844D01*
X2598696Y3073981D01*
X2597500Y3072190D01*
X2592500D01*
X2591304Y3073981D01*
X2585522Y3077844D01*
X2578701Y3079201D01*
X2549095D01*
X2542274Y3077844D01*
X2536492Y3073981D01*
X2536215Y3073565D01*
X2505000D01*
Y3232266D01*
X2523867Y3251133D01*
X2529231Y3258123D01*
X2532603Y3266264D01*
X2533753Y3275000D01*
Y3741019D01*
X2563867Y3771133D01*
X2628981Y3836247D01*
X2665599D01*
X2667296Y3831247D01*
D02*
G37*
G36*
X2821734Y3120215D02*
Y3078499D01*
X2821736D01*
Y3074720D01*
X2847429D01*
Y3055814D01*
X2778308Y2986692D01*
X2773957Y2980181D01*
X2772429Y2972500D01*
Y2945280D01*
X2721736D01*
Y2903995D01*
X2695492D01*
X2657423Y2942063D01*
X2658728Y2948622D01*
Y2981378D01*
X2657371Y2988198D01*
X2653508Y2993981D01*
X2647726Y2997844D01*
X2640905Y2999201D01*
X2611299D01*
X2604478Y2997844D01*
X2598696Y2993981D01*
X2597500Y2992190D01*
X2592500D01*
X2591304Y2993981D01*
X2585522Y2997844D01*
X2578701Y2999201D01*
X2549095D01*
X2542274Y2997844D01*
X2536492Y2993981D01*
X2535701Y2992797D01*
X2505000D01*
Y3017971D01*
X2535188D01*
X2536492Y3016019D01*
X2542274Y3012156D01*
X2549095Y3010799D01*
X2578701D01*
X2585522Y3012156D01*
X2591304Y3016019D01*
X2592500Y3017810D01*
X2597500D01*
X2598696Y3016019D01*
X2604478Y3012156D01*
X2611299Y3010799D01*
X2640905D01*
X2647726Y3012156D01*
X2653508Y3016019D01*
X2657371Y3021802D01*
X2658728Y3028622D01*
Y3061378D01*
X2657423Y3067937D01*
X2695492Y3106005D01*
X2721736D01*
Y3074720D01*
X2813264D01*
Y3078499D01*
X2813266D01*
Y3121076D01*
X2821563D01*
X2821734Y3120215D01*
D02*
G37*
G36*
X2923696Y3521019D02*
X2929478Y3517156D01*
X2936299Y3515799D01*
X2959890D01*
X3137872Y3337817D01*
Y2949331D01*
X3138820Y2942137D01*
X3141597Y2935432D01*
X3146014Y2929675D01*
X3225345Y2850345D01*
X3231102Y2845927D01*
X3237806Y2843150D01*
X3240544Y2842790D01*
X3241220Y2837658D01*
X3236400Y2835661D01*
X3229820Y2830613D01*
X3224772Y2824034D01*
X3221598Y2816372D01*
X3220516Y2808150D01*
Y2701850D01*
X3221598Y2693628D01*
X3224772Y2685966D01*
X3229820Y2679387D01*
X3236400Y2674339D01*
X3242203Y2671935D01*
Y2640000D01*
X3243150Y2632806D01*
X3245927Y2626102D01*
X3250345Y2620345D01*
X3276511Y2594179D01*
X3275787Y2591479D01*
Y2578521D01*
X3279141Y2566005D01*
X3285620Y2554783D01*
X3294783Y2545620D01*
X3306005Y2539141D01*
X3318521Y2535787D01*
X3331479D01*
X3343995Y2539141D01*
X3355217Y2545620D01*
X3364380Y2554783D01*
X3370859Y2566005D01*
X3374213Y2578521D01*
Y2591479D01*
X3370859Y2603995D01*
X3364380Y2615217D01*
X3355217Y2624380D01*
X3343995Y2630859D01*
X3331479Y2634213D01*
X3318521D01*
X3315821Y2633489D01*
X3297797Y2651514D01*
Y2671935D01*
X3303600Y2674339D01*
X3310180Y2679387D01*
X3315228Y2685966D01*
X3317294Y2690954D01*
X3322706D01*
X3324772Y2685966D01*
X3329820Y2679387D01*
X3336400Y2674339D01*
X3344061Y2671165D01*
X3352284Y2670083D01*
X3387716D01*
X3395939Y2671165D01*
X3403600Y2674339D01*
X3410180Y2679387D01*
X3415228Y2685966D01*
X3417294Y2690954D01*
X3422706D01*
X3424772Y2685966D01*
X3429820Y2679387D01*
X3436400Y2674339D01*
X3444061Y2671165D01*
X3452284Y2670083D01*
X3487716D01*
X3495939Y2671165D01*
X3503600Y2674339D01*
X3510180Y2679387D01*
X3515228Y2685966D01*
X3517294Y2690954D01*
X3522706D01*
X3524772Y2685966D01*
X3529820Y2679387D01*
X3536400Y2674339D01*
X3544061Y2671165D01*
X3552284Y2670083D01*
X3587716D01*
X3595939Y2671165D01*
X3603600Y2674339D01*
X3610180Y2679387D01*
X3615228Y2685966D01*
X3617294Y2690954D01*
X3622706D01*
X3624772Y2685966D01*
X3629820Y2679387D01*
X3636400Y2674339D01*
X3644061Y2671165D01*
X3652284Y2670083D01*
X3687716D01*
X3695939Y2671165D01*
X3703600Y2674339D01*
X3710180Y2679387D01*
X3715228Y2685966D01*
X3717294Y2690954D01*
X3722706D01*
X3724772Y2685966D01*
X3729820Y2679387D01*
X3736400Y2674339D01*
X3744061Y2671165D01*
X3752284Y2670083D01*
X3787716D01*
X3795939Y2671165D01*
X3803600Y2674339D01*
X3810180Y2679387D01*
X3815228Y2685966D01*
X3817294Y2690954D01*
X3822706D01*
X3824772Y2685966D01*
X3829820Y2679387D01*
X3836400Y2674339D01*
X3844061Y2671165D01*
X3852284Y2670083D01*
X3862183D01*
X3990787Y2541478D01*
Y2533521D01*
X3994141Y2521005D01*
X4000221Y2510475D01*
Y2487955D01*
X3896478Y2384213D01*
X3888521D01*
X3876005Y2380859D01*
X3864783Y2374380D01*
X3855620Y2365217D01*
X3852120Y2359155D01*
X3851150Y2358753D01*
X3728535D01*
X3727603Y2365831D01*
X3724231Y2373972D01*
X3718867Y2380962D01*
X3695805Y2404025D01*
X3693307Y2405941D01*
Y2433307D01*
X3606693D01*
Y2423753D01*
X3535000D01*
X3526264Y2422603D01*
X3518123Y2419231D01*
X3511133Y2413867D01*
X3445901Y2348635D01*
X3359958D01*
X3357887Y2353635D01*
X3361355Y2357104D01*
X3367337Y2367463D01*
X3370433Y2379019D01*
Y2380000D01*
X3325000D01*
X3279567D01*
Y2379019D01*
X3282663Y2367463D01*
X3288645Y2357104D01*
X3292113Y2353635D01*
X3290042Y2348635D01*
X3274101D01*
X3208081Y2414655D01*
X3201090Y2420019D01*
X3192949Y2423391D01*
X3184213Y2424541D01*
X3113307D01*
Y2434095D01*
X3026693D01*
Y2424541D01*
X2876771D01*
Y2500787D01*
X2846301D01*
Y2765000D01*
X2846063Y2766806D01*
Y2792559D01*
X2837571D01*
Y2852568D01*
X2838264D01*
Y2856347D01*
X2846736D01*
Y2852568D01*
X2938264D01*
Y2945280D01*
X2846736D01*
Y2941501D01*
X2846734D01*
Y2898924D01*
X2838266D01*
Y2941501D01*
X2838264D01*
Y2945280D01*
X2812571D01*
Y2964186D01*
X2878314Y3029929D01*
X3009620D01*
X3017300Y3031457D01*
X3023812Y3035808D01*
X3050847Y3062844D01*
X3058521Y3060787D01*
X3071479D01*
X3083995Y3064141D01*
X3095217Y3070620D01*
X3104380Y3079783D01*
X3110859Y3091005D01*
X3114213Y3103521D01*
Y3116479D01*
X3110859Y3128995D01*
X3104380Y3140217D01*
X3095217Y3149380D01*
X3083995Y3155859D01*
X3071479Y3159213D01*
X3058521D01*
X3046005Y3155859D01*
X3034783Y3149380D01*
X3025620Y3140217D01*
X3019141Y3128995D01*
X3015787Y3116479D01*
Y3103521D01*
X3019141Y3091005D01*
X3020276Y3089040D01*
X3001306Y3070071D01*
X2939111D01*
X2938264Y3074720D01*
X2938264D01*
Y3167432D01*
X2937571D01*
Y3329446D01*
X2936043Y3337127D01*
X2931692Y3343638D01*
X2908969Y3366361D01*
Y3516847D01*
X2910522Y3517156D01*
X2916304Y3521019D01*
X2917500Y3522810D01*
X2922500D01*
X2923696Y3521019D01*
D02*
G37*
G36*
X5171247Y3781019D02*
Y2108981D01*
X5156019Y2093753D01*
X2588981D01*
X2563867Y2118867D01*
X2538753Y2143981D01*
Y2725000D01*
X2537603Y2733736D01*
X2534877Y2740318D01*
X2539116Y2743150D01*
X2585695Y2696571D01*
Y2640000D01*
Y2500787D01*
X2573229D01*
Y2349213D01*
X2670867D01*
Y2500787D01*
X2653201D01*
Y2640000D01*
Y2710552D01*
X2652051Y2719288D01*
X2648679Y2727429D01*
X2643315Y2734419D01*
X2538867Y2838867D01*
X2531877Y2844231D01*
X2523736Y2847603D01*
X2515000Y2848753D01*
X2505000D01*
Y2937203D01*
X2535701D01*
X2536492Y2936019D01*
X2542274Y2932156D01*
X2549095Y2930799D01*
X2578701D01*
X2585522Y2932156D01*
X2591304Y2936019D01*
X2592500Y2937810D01*
X2597500D01*
X2598696Y2936019D01*
X2604478Y2932156D01*
X2611299Y2930799D01*
X2614629D01*
X2615157Y2928145D01*
X2619508Y2921634D01*
X2624258Y2918460D01*
X2672986Y2869732D01*
X2679497Y2865381D01*
X2687178Y2863853D01*
X2721736D01*
Y2852568D01*
X2797429D01*
Y2792559D01*
X2790945D01*
Y2766806D01*
X2790707Y2765000D01*
Y2500787D01*
X2779133D01*
Y2349213D01*
X2876771D01*
Y2357035D01*
X3026693D01*
Y2347481D01*
X3113307D01*
Y2357035D01*
X3170232D01*
X3236252Y2291015D01*
X3243243Y2285651D01*
X3251383Y2282279D01*
X3260119Y2281129D01*
X3459882D01*
X3468618Y2282279D01*
X3476759Y2285651D01*
X3483749Y2291015D01*
X3548981Y2356247D01*
X3606693D01*
Y2346693D01*
X3657649D01*
X3657670Y2346690D01*
X3661247Y2343114D01*
Y2333155D01*
X3656133Y2328041D01*
X3650769Y2321050D01*
X3647397Y2312910D01*
X3646247Y2304173D01*
Y2240844D01*
X3640620Y2235217D01*
X3634141Y2223995D01*
X3630787Y2211479D01*
Y2198521D01*
X3634141Y2186005D01*
X3640620Y2174783D01*
X3649783Y2165620D01*
X3661005Y2159141D01*
X3673521Y2155787D01*
X3686479D01*
X3698995Y2159141D01*
X3710217Y2165620D01*
X3719380Y2174783D01*
X3725859Y2186005D01*
X3729213Y2198521D01*
Y2211479D01*
X3725859Y2223995D01*
X3719380Y2235217D01*
X3713753Y2240844D01*
Y2290192D01*
X3714808Y2291247D01*
X3862729D01*
X3870570Y2292279D01*
X3876005Y2289141D01*
X3888521Y2285787D01*
X3901479D01*
X3913995Y2289141D01*
X3925217Y2295620D01*
X3934380Y2304783D01*
X3940859Y2316005D01*
X3944213Y2328521D01*
Y2336478D01*
X4038963Y2431229D01*
X4043583Y2429315D01*
Y2410000D01*
X4085000D01*
Y2451417D01*
X4064499D01*
X4062288Y2455902D01*
X4063205Y2457097D01*
X4066577Y2465238D01*
X4067727Y2473974D01*
Y2499183D01*
X4070217Y2500620D01*
X4075844Y2506247D01*
X4299929D01*
X4343406Y2462769D01*
X4341493Y2458150D01*
X4338909D01*
X4325391Y2454528D01*
X4313271Y2447530D01*
X4303376Y2437635D01*
X4296378Y2425515D01*
X4292756Y2411997D01*
Y2398003D01*
X4296378Y2384485D01*
X4303376Y2372365D01*
X4313271Y2362470D01*
X4325391Y2355472D01*
X4338909Y2351850D01*
X4352903D01*
X4366421Y2355472D01*
X4378541Y2362470D01*
X4388436Y2372365D01*
X4395434Y2384485D01*
X4399056Y2398003D01*
Y2411997D01*
X4395434Y2425515D01*
X4391101Y2433019D01*
X4393601Y2437349D01*
X4481102D01*
X4489838Y2438499D01*
X4497979Y2441871D01*
X4504970Y2447235D01*
X4548522Y2490787D01*
X4556479D01*
X4568995Y2494141D01*
X4580217Y2500620D01*
X4589380Y2509783D01*
X4595859Y2521005D01*
X4599212Y2533521D01*
Y2541478D01*
X4738981Y2681247D01*
X4784156D01*
X4789783Y2675620D01*
X4801005Y2669141D01*
X4813521Y2665787D01*
X4826479D01*
X4838995Y2669141D01*
X4850217Y2675620D01*
X4859380Y2684783D01*
X4865859Y2696005D01*
X4869212Y2708521D01*
Y2721479D01*
X4865859Y2733995D01*
X4859380Y2745217D01*
X4850217Y2754380D01*
X4838995Y2760859D01*
X4833199Y2762412D01*
Y2767588D01*
X4838995Y2769141D01*
X4850217Y2775620D01*
X4859380Y2784783D01*
X4865859Y2796005D01*
X4869212Y2808521D01*
Y2821479D01*
X4865859Y2833995D01*
X4859380Y2845217D01*
X4850217Y2854380D01*
X4838995Y2860859D01*
X4826479Y2864213D01*
X4813521D01*
X4801005Y2860859D01*
X4789783Y2854380D01*
X4788373Y2852970D01*
X4783753Y2854883D01*
Y2997956D01*
X4787044Y3001247D01*
X4794156D01*
X4799783Y2995620D01*
X4811005Y2989141D01*
X4823521Y2985787D01*
X4836479D01*
X4848995Y2989141D01*
X4860217Y2995620D01*
X4869380Y3004783D01*
X4875859Y3016005D01*
X4879212Y3028521D01*
Y3041479D01*
X4875859Y3053995D01*
X4869380Y3065217D01*
X4860217Y3074380D01*
X4848995Y3080859D01*
X4843199Y3082412D01*
Y3087588D01*
X4848995Y3089141D01*
X4860217Y3095620D01*
X4869380Y3104783D01*
X4875859Y3116005D01*
X4879212Y3128521D01*
Y3141479D01*
X4875859Y3153995D01*
X4869380Y3165217D01*
X4860217Y3174380D01*
X4848995Y3180859D01*
X4836479Y3184213D01*
X4823521D01*
X4811005Y3180859D01*
X4799783Y3174380D01*
X4790620Y3165217D01*
X4784141Y3153995D01*
X4780788Y3141479D01*
Y3128521D01*
X4784141Y3116005D01*
X4790620Y3104783D01*
X4799783Y3095620D01*
X4811005Y3089141D01*
X4816801Y3087588D01*
Y3082412D01*
X4811005Y3080859D01*
X4799783Y3074380D01*
X4794156Y3068753D01*
X4773062D01*
X4764327Y3067603D01*
X4756186Y3064231D01*
X4749195Y3058867D01*
X4726133Y3035805D01*
X4720769Y3028814D01*
X4717397Y3020673D01*
X4716247Y3011938D01*
Y2747596D01*
X4708123Y2744231D01*
X4701133Y2738867D01*
X4551478Y2589213D01*
X4543521D01*
X4531005Y2585859D01*
X4519783Y2579380D01*
X4510620Y2570217D01*
X4504141Y2558995D01*
X4500788Y2546479D01*
Y2538522D01*
X4493380Y2531115D01*
X4491267Y2532335D01*
X4489212Y2534018D01*
Y2546479D01*
X4485859Y2558995D01*
X4479380Y2570217D01*
X4470217Y2579380D01*
X4458995Y2585859D01*
X4446479Y2589213D01*
X4433521D01*
X4421005Y2585859D01*
X4409783Y2579380D01*
X4400620Y2570217D01*
X4394141Y2558995D01*
X4390788Y2546479D01*
Y2533521D01*
X4394141Y2521005D01*
X4398771Y2512986D01*
X4396210Y2507421D01*
X4394536Y2507109D01*
X4337777Y2563867D01*
X4330787Y2569231D01*
X4322646Y2572603D01*
X4313910Y2573753D01*
X4075844D01*
X4070217Y2579380D01*
X4058995Y2585859D01*
X4046479Y2589213D01*
X4038522D01*
X3958459Y2669275D01*
X3960373Y2673895D01*
X3965000D01*
Y2755000D01*
Y2836105D01*
X3955911D01*
X3953840Y2841105D01*
X4078119Y2965385D01*
X4081724Y2970083D01*
X4087716D01*
X4095939Y2971165D01*
X4103600Y2974339D01*
X4110180Y2979387D01*
X4115228Y2985966D01*
X4117294Y2990954D01*
X4122706D01*
X4124772Y2985966D01*
X4129820Y2979387D01*
X4136400Y2974339D01*
X4144061Y2971165D01*
X4152283Y2970083D01*
X4187717D01*
X4195939Y2971165D01*
X4203600Y2974339D01*
X4210180Y2979387D01*
X4215228Y2985966D01*
X4217294Y2990954D01*
X4222706D01*
X4224772Y2985966D01*
X4229820Y2979387D01*
X4236400Y2974339D01*
X4244061Y2971165D01*
X4252283Y2970083D01*
X4287717D01*
X4295939Y2971165D01*
X4303600Y2974339D01*
X4310180Y2979387D01*
X4315228Y2985966D01*
X4317294Y2990954D01*
X4322706D01*
X4324772Y2985966D01*
X4329820Y2979387D01*
X4336400Y2974339D01*
X4344061Y2971165D01*
X4352283Y2970083D01*
X4387717D01*
X4395939Y2971165D01*
X4403600Y2974339D01*
X4410180Y2979387D01*
X4415228Y2985966D01*
X4417294Y2990954D01*
X4422706D01*
X4424772Y2985966D01*
X4429820Y2979387D01*
X4436400Y2974339D01*
X4444061Y2971165D01*
X4452283Y2970083D01*
X4487717D01*
X4495939Y2971165D01*
X4503600Y2974339D01*
X4510180Y2979387D01*
X4515228Y2985966D01*
X4517294Y2990954D01*
X4522706D01*
X4524772Y2985966D01*
X4529820Y2979387D01*
X4536400Y2974339D01*
X4544061Y2971165D01*
X4552283Y2970083D01*
X4587717D01*
X4595939Y2971165D01*
X4603600Y2974339D01*
X4610180Y2979387D01*
X4615228Y2985966D01*
X4618402Y2993628D01*
X4619484Y3001850D01*
Y3100607D01*
X4722135Y3203258D01*
X4726553Y3209015D01*
X4729330Y3215719D01*
X4730277Y3222913D01*
Y3379677D01*
X4735115Y3382470D01*
X4745010Y3392365D01*
X4752007Y3404485D01*
X4755630Y3418003D01*
Y3431997D01*
X4752007Y3445515D01*
X4745010Y3457635D01*
X4735115Y3467530D01*
X4722995Y3474528D01*
X4709477Y3478150D01*
X4695483D01*
X4681965Y3474528D01*
X4669845Y3467530D01*
X4659950Y3457635D01*
X4652953Y3445515D01*
X4649330Y3431997D01*
Y3418003D01*
X4652953Y3404485D01*
X4659950Y3392365D01*
X4669845Y3382470D01*
X4674683Y3379677D01*
Y3234427D01*
X4580174Y3139917D01*
X4552283D01*
X4544061Y3138835D01*
X4536400Y3135661D01*
X4529820Y3130613D01*
X4524772Y3124034D01*
X4522706Y3119046D01*
X4517294D01*
X4515228Y3124034D01*
X4510180Y3130613D01*
X4503600Y3135661D01*
X4495939Y3138835D01*
X4487717Y3139917D01*
X4452283D01*
X4444061Y3138835D01*
X4436400Y3135661D01*
X4429820Y3130613D01*
X4424772Y3124034D01*
X4422706Y3119046D01*
X4417294D01*
X4415228Y3124034D01*
X4410180Y3130613D01*
X4403600Y3135661D01*
X4397797Y3138065D01*
Y3240000D01*
X4396850Y3247194D01*
X4394073Y3253898D01*
X4389655Y3259655D01*
X4287460Y3361850D01*
X4289531Y3366850D01*
X4296997D01*
X4310515Y3370472D01*
X4322635Y3377470D01*
X4332530Y3387365D01*
X4336234Y3393780D01*
X4349518D01*
X4358254Y3394930D01*
X4366395Y3398302D01*
X4373386Y3403666D01*
X4396448Y3426728D01*
X4401812Y3433719D01*
X4405184Y3441860D01*
X4406334Y3450595D01*
Y3618140D01*
X4405184Y3626876D01*
X4401812Y3635017D01*
X4396448Y3642008D01*
X4209588Y3828867D01*
X4206487Y3831247D01*
X4208185Y3836247D01*
X5116019D01*
X5171247Y3781019D01*
D02*
G37*
%LPC*%
G36*
X3580981Y3740433D02*
X3580000D01*
Y3700000D01*
X3620433D01*
Y3700981D01*
X3617337Y3712537D01*
X3611355Y3722896D01*
X3602896Y3731355D01*
X3592537Y3737337D01*
X3580981Y3740433D01*
D02*
G37*
G36*
X3570000D02*
X3569019D01*
X3557463Y3737337D01*
X3547104Y3731355D01*
X3538645Y3722896D01*
X3532663Y3712537D01*
X3529567Y3700981D01*
Y3700000D01*
X3570000D01*
Y3740433D01*
D02*
G37*
G36*
X3905981Y3720433D02*
X3905000D01*
Y3680000D01*
X3945433D01*
Y3680981D01*
X3942337Y3692537D01*
X3936355Y3702896D01*
X3927896Y3711355D01*
X3917537Y3717337D01*
X3905981Y3720433D01*
D02*
G37*
G36*
X3895000D02*
X3894019D01*
X3882463Y3717337D01*
X3872104Y3711355D01*
X3863645Y3702896D01*
X3857663Y3692537D01*
X3854567Y3680981D01*
Y3680000D01*
X3895000D01*
Y3720433D01*
D02*
G37*
G36*
X3620433Y3690000D02*
X3580000D01*
Y3649567D01*
X3580981D01*
X3592537Y3652663D01*
X3602896Y3658645D01*
X3611355Y3667104D01*
X3617337Y3677463D01*
X3620433Y3689019D01*
Y3690000D01*
D02*
G37*
G36*
X3570000D02*
X3529567D01*
Y3689019D01*
X3532663Y3677463D01*
X3538645Y3667104D01*
X3547104Y3658645D01*
X3557463Y3652663D01*
X3569019Y3649567D01*
X3570000D01*
Y3690000D01*
D02*
G37*
G36*
X3381479Y3744213D02*
X3368521D01*
X3356005Y3740859D01*
X3344783Y3734380D01*
X3335620Y3725217D01*
X3329141Y3713995D01*
X3325787Y3701479D01*
Y3688521D01*
X3329141Y3676005D01*
X3335620Y3664783D01*
X3344783Y3655620D01*
X3356005Y3649141D01*
X3368521Y3645787D01*
X3381479D01*
X3393995Y3649141D01*
X3405217Y3655620D01*
X3414380Y3664783D01*
X3420859Y3676005D01*
X3424213Y3688521D01*
Y3701479D01*
X3420859Y3713995D01*
X3414380Y3725217D01*
X3405217Y3734380D01*
X3393995Y3740859D01*
X3381479Y3744213D01*
D02*
G37*
G36*
X3945433Y3670000D02*
X3905000D01*
Y3629567D01*
X3905981D01*
X3917537Y3632663D01*
X3927896Y3638645D01*
X3936355Y3647104D01*
X3942337Y3657463D01*
X3945433Y3669019D01*
Y3670000D01*
D02*
G37*
G36*
X3895000D02*
X3854567D01*
Y3669019D01*
X3857663Y3657463D01*
X3863645Y3647104D01*
X3872104Y3638645D01*
X3882463Y3632663D01*
X3894019Y3629567D01*
X3895000D01*
Y3670000D01*
D02*
G37*
G36*
X3261479Y3559213D02*
X3248521D01*
X3236005Y3555859D01*
X3224783Y3549380D01*
X3215620Y3540217D01*
X3209141Y3528995D01*
X3205787Y3516479D01*
Y3503521D01*
X3209141Y3491005D01*
X3215620Y3479783D01*
X3224783Y3470620D01*
X3236005Y3464141D01*
X3248521Y3460787D01*
X3261479D01*
X3273995Y3464141D01*
X3285217Y3470620D01*
X3294380Y3479783D01*
X3300859Y3491005D01*
X3304213Y3503521D01*
Y3516479D01*
X3300859Y3528995D01*
X3294380Y3540217D01*
X3285217Y3549380D01*
X3273995Y3555859D01*
X3261479Y3559213D01*
D02*
G37*
G36*
X3370204Y3384528D02*
X3370000D01*
Y3350000D01*
X3404528D01*
Y3350204D01*
X3401834Y3360257D01*
X3396630Y3369271D01*
X3389271Y3376630D01*
X3380257Y3381834D01*
X3370204Y3384528D01*
D02*
G37*
G36*
X3360000D02*
X3359796D01*
X3349743Y3381834D01*
X3340729Y3376630D01*
X3333370Y3369271D01*
X3328166Y3360257D01*
X3325472Y3350204D01*
Y3350000D01*
X3360000D01*
Y3384528D01*
D02*
G37*
G36*
Y3340000D02*
X3325472D01*
Y3339796D01*
X3328166Y3329743D01*
X3333370Y3320729D01*
X3340729Y3313370D01*
X3349743Y3308166D01*
X3359796Y3305472D01*
X3360000D01*
Y3340000D01*
D02*
G37*
G36*
X3775981Y3295433D02*
X3775000D01*
Y3255000D01*
X3815433D01*
Y3255981D01*
X3812337Y3267537D01*
X3806355Y3277896D01*
X3797896Y3286355D01*
X3787537Y3292337D01*
X3775981Y3295433D01*
D02*
G37*
G36*
X3765000D02*
X3764019D01*
X3752463Y3292337D01*
X3742104Y3286355D01*
X3733645Y3277896D01*
X3727663Y3267537D01*
X3724567Y3255981D01*
Y3255000D01*
X3765000D01*
Y3295433D01*
D02*
G37*
G36*
X3815433Y3245000D02*
X3775000D01*
Y3204567D01*
X3775981D01*
X3787537Y3207663D01*
X3797896Y3213645D01*
X3806355Y3222104D01*
X3812337Y3232463D01*
X3815433Y3244019D01*
Y3245000D01*
D02*
G37*
G36*
X3765000D02*
X3724567D01*
Y3244019D01*
X3727663Y3232463D01*
X3733645Y3222104D01*
X3742104Y3213645D01*
X3752463Y3207663D01*
X3764019Y3204567D01*
X3765000D01*
Y3245000D01*
D02*
G37*
G36*
X2789370Y3225000D02*
X2745000D01*
Y3180630D01*
X2746500D01*
X2759056Y3183994D01*
X2770314Y3190494D01*
X2779506Y3199686D01*
X2786006Y3210944D01*
X2789370Y3223500D01*
Y3225000D01*
D02*
G37*
G36*
X2735000D02*
X2690630D01*
Y3223500D01*
X2693994Y3210944D01*
X2700494Y3199686D01*
X2709686Y3190494D01*
X2720944Y3183994D01*
X2733500Y3180630D01*
X2735000D01*
Y3225000D01*
D02*
G37*
G36*
X3070981Y2955433D02*
X3070000D01*
Y2915000D01*
X3110433D01*
Y2915981D01*
X3107337Y2927537D01*
X3101355Y2937896D01*
X3092896Y2946355D01*
X3082537Y2952337D01*
X3070981Y2955433D01*
D02*
G37*
G36*
X3060000D02*
X3059019D01*
X3047463Y2952337D01*
X3037104Y2946355D01*
X3028645Y2937896D01*
X3022663Y2927537D01*
X3019567Y2915981D01*
Y2915000D01*
X3060000D01*
Y2955433D01*
D02*
G37*
G36*
X3110433Y2905000D02*
X3070000D01*
Y2864567D01*
X3070981D01*
X3082537Y2867663D01*
X3092896Y2873645D01*
X3101355Y2882104D01*
X3107337Y2892463D01*
X3110433Y2904019D01*
Y2905000D01*
D02*
G37*
G36*
X3060000D02*
X3019567D01*
Y2904019D01*
X3022663Y2892463D01*
X3028645Y2882104D01*
X3037104Y2873645D01*
X3047463Y2867663D01*
X3059019Y2864567D01*
X3060000D01*
Y2905000D01*
D02*
G37*
G36*
X2905276Y2788780D02*
X2886496D01*
Y2770000D01*
X2905276D01*
Y2788780D01*
D02*
G37*
G36*
X2876496D02*
X2857716D01*
Y2770000D01*
X2876496D01*
Y2788780D01*
D02*
G37*
G36*
X2905276Y2760000D02*
X2886496D01*
Y2741220D01*
X2905276D01*
Y2760000D01*
D02*
G37*
G36*
X2876496D02*
X2857716D01*
Y2741220D01*
X2876496D01*
Y2760000D01*
D02*
G37*
G36*
X3900981Y2580433D02*
X3900000D01*
Y2540000D01*
X3940433D01*
Y2540981D01*
X3937337Y2552537D01*
X3931355Y2562896D01*
X3922896Y2571355D01*
X3912537Y2577337D01*
X3900981Y2580433D01*
D02*
G37*
G36*
X3890000D02*
X3889019D01*
X3877463Y2577337D01*
X3867104Y2571355D01*
X3858645Y2562896D01*
X3852663Y2552537D01*
X3849567Y2540981D01*
Y2540000D01*
X3890000D01*
Y2580433D01*
D02*
G37*
G36*
X3075204Y2528740D02*
X3075000D01*
Y2494212D01*
X3109528D01*
Y2494416D01*
X3106834Y2504469D01*
X3101630Y2513483D01*
X3094271Y2520842D01*
X3085257Y2526046D01*
X3075204Y2528740D01*
D02*
G37*
G36*
X3065000D02*
X3064796D01*
X3054743Y2526046D01*
X3045729Y2520842D01*
X3038370Y2513483D01*
X3033166Y2504469D01*
X3030472Y2494416D01*
Y2494212D01*
X3065000D01*
Y2528740D01*
D02*
G37*
G36*
X3655204Y2527954D02*
X3655000D01*
Y2493426D01*
X3689528D01*
Y2493630D01*
X3686834Y2503683D01*
X3681630Y2512697D01*
X3674271Y2520056D01*
X3665257Y2525260D01*
X3655204Y2527954D01*
D02*
G37*
G36*
X3645000D02*
X3644796D01*
X3634743Y2525260D01*
X3625729Y2520056D01*
X3618370Y2512697D01*
X3613166Y2503683D01*
X3610472Y2493630D01*
Y2493426D01*
X3645000D01*
Y2527954D01*
D02*
G37*
G36*
X3940433Y2530000D02*
X3900000D01*
Y2489567D01*
X3900981D01*
X3912537Y2492663D01*
X3922896Y2498645D01*
X3931355Y2507104D01*
X3937337Y2517463D01*
X3940433Y2529019D01*
Y2530000D01*
D02*
G37*
G36*
X3890000D02*
X3849567D01*
Y2529019D01*
X3852663Y2517463D01*
X3858645Y2507104D01*
X3867104Y2498645D01*
X3877463Y2492663D01*
X3889019Y2489567D01*
X3890000D01*
Y2530000D01*
D02*
G37*
G36*
X3109528Y2484212D02*
X3075000D01*
Y2449684D01*
X3075204D01*
X3085257Y2452378D01*
X3094271Y2457582D01*
X3101630Y2464941D01*
X3106834Y2473955D01*
X3109528Y2484008D01*
Y2484212D01*
D02*
G37*
G36*
X3065000D02*
X3030472D01*
Y2484008D01*
X3033166Y2473955D01*
X3038370Y2464941D01*
X3045729Y2457582D01*
X3054743Y2452378D01*
X3064796Y2449684D01*
X3065000D01*
Y2484212D01*
D02*
G37*
G36*
X3689528Y2483426D02*
X3655000D01*
Y2448898D01*
X3655204D01*
X3665257Y2451592D01*
X3674271Y2456796D01*
X3681630Y2464155D01*
X3686834Y2473169D01*
X3689528Y2483222D01*
Y2483426D01*
D02*
G37*
G36*
X3645000D02*
X3610472D01*
Y2483222D01*
X3613166Y2473169D01*
X3618370Y2464155D01*
X3625729Y2456796D01*
X3634743Y2451592D01*
X3644796Y2448898D01*
X3645000D01*
Y2483426D01*
D02*
G37*
G36*
X3330981Y2430433D02*
X3330000D01*
Y2390000D01*
X3370433D01*
Y2390981D01*
X3367337Y2402537D01*
X3361355Y2412896D01*
X3352896Y2421355D01*
X3342537Y2427337D01*
X3330981Y2430433D01*
D02*
G37*
G36*
X3320000D02*
X3319019D01*
X3307463Y2427337D01*
X3297104Y2421355D01*
X3288645Y2412896D01*
X3282663Y2402537D01*
X3279567Y2390981D01*
Y2390000D01*
X3320000D01*
Y2430433D01*
D02*
G37*
G36*
X4551500Y3474370D02*
X4550000D01*
Y3430000D01*
X4594370D01*
Y3431500D01*
X4591006Y3444056D01*
X4584506Y3455314D01*
X4575314Y3464506D01*
X4564056Y3471006D01*
X4551500Y3474370D01*
D02*
G37*
G36*
X4540000D02*
X4538500D01*
X4525944Y3471006D01*
X4514686Y3464506D01*
X4505494Y3455314D01*
X4498994Y3444056D01*
X4495630Y3431500D01*
Y3430000D01*
X4540000D01*
Y3474370D01*
D02*
G37*
G36*
X4594370Y3420000D02*
X4550000D01*
Y3375630D01*
X4551500D01*
X4564056Y3378994D01*
X4575314Y3385494D01*
X4584506Y3394686D01*
X4591006Y3405944D01*
X4594370Y3418500D01*
Y3420000D01*
D02*
G37*
G36*
X4540000D02*
X4495630D01*
Y3418500D01*
X4498994Y3405944D01*
X4505494Y3394686D01*
X4514686Y3385494D01*
X4525944Y3378994D01*
X4538500Y3375630D01*
X4540000D01*
Y3420000D01*
D02*
G37*
G36*
X5121479Y3284213D02*
X5108521D01*
X5096005Y3280859D01*
X5084783Y3274380D01*
X5075620Y3265217D01*
X5069141Y3253995D01*
X5065788Y3241479D01*
Y3228521D01*
X5069141Y3216005D01*
X5075620Y3204783D01*
X5084783Y3195620D01*
X5096005Y3189141D01*
X5108521Y3185787D01*
X5121479D01*
X5133995Y3189141D01*
X5145217Y3195620D01*
X5154380Y3204783D01*
X5160859Y3216005D01*
X5164212Y3228521D01*
Y3241479D01*
X5160859Y3253995D01*
X5154380Y3265217D01*
X5145217Y3274380D01*
X5133995Y3280859D01*
X5121479Y3284213D01*
D02*
G37*
G36*
X4587717Y2839917D02*
X4552283D01*
X4544061Y2838835D01*
X4536400Y2835661D01*
X4529820Y2830613D01*
X4524772Y2824034D01*
X4522706Y2819046D01*
X4517294D01*
X4515228Y2824034D01*
X4510180Y2830613D01*
X4503600Y2835661D01*
X4495939Y2838835D01*
X4487717Y2839917D01*
X4452283D01*
X4444061Y2838835D01*
X4436400Y2835661D01*
X4429820Y2830613D01*
X4424772Y2824034D01*
X4422706Y2819046D01*
X4417294D01*
X4415228Y2824034D01*
X4410180Y2830613D01*
X4403600Y2835661D01*
X4395939Y2838835D01*
X4387717Y2839917D01*
X4352283D01*
X4344061Y2838835D01*
X4336400Y2835661D01*
X4329820Y2830613D01*
X4324772Y2824034D01*
X4322706Y2819046D01*
X4317294D01*
X4315228Y2824034D01*
X4310180Y2830613D01*
X4303600Y2835661D01*
X4295939Y2838835D01*
X4287717Y2839917D01*
X4252283D01*
X4244061Y2838835D01*
X4236400Y2835661D01*
X4229820Y2830613D01*
X4224772Y2824034D01*
X4222706Y2819046D01*
X4217294D01*
X4215228Y2824034D01*
X4210180Y2830613D01*
X4203600Y2835661D01*
X4195939Y2838835D01*
X4187717Y2839917D01*
X4152283D01*
X4144061Y2838835D01*
X4136400Y2835661D01*
X4129820Y2830613D01*
X4124772Y2824034D01*
X4122706Y2819046D01*
X4117294D01*
X4115228Y2824034D01*
X4110180Y2830613D01*
X4103600Y2835661D01*
X4095939Y2838835D01*
X4087716Y2839917D01*
X4052284D01*
X4044061Y2838835D01*
X4036400Y2835661D01*
X4029820Y2830613D01*
X4024772Y2824034D01*
X4021598Y2816372D01*
X4020615Y2808908D01*
X4015572D01*
X4014720Y2815385D01*
X4011927Y2822127D01*
X4007484Y2827917D01*
X4001694Y2832360D01*
X3994952Y2835153D01*
X3987716Y2836105D01*
X3975000D01*
Y2755000D01*
Y2673895D01*
X3987716D01*
X3994952Y2674847D01*
X4001694Y2677640D01*
X4007484Y2682083D01*
X4011927Y2687873D01*
X4014720Y2694615D01*
X4015572Y2701092D01*
X4020615D01*
X4021598Y2693628D01*
X4024772Y2685966D01*
X4029820Y2679387D01*
X4036400Y2674339D01*
X4044061Y2671165D01*
X4052284Y2670083D01*
X4087716D01*
X4095939Y2671165D01*
X4103600Y2674339D01*
X4110180Y2679387D01*
X4115228Y2685966D01*
X4117294Y2690954D01*
X4122706D01*
X4124772Y2685966D01*
X4129820Y2679387D01*
X4136400Y2674339D01*
X4144061Y2671165D01*
X4152283Y2670083D01*
X4187717D01*
X4195939Y2671165D01*
X4203600Y2674339D01*
X4210180Y2679387D01*
X4215228Y2685966D01*
X4217294Y2690954D01*
X4222706D01*
X4224772Y2685966D01*
X4229820Y2679387D01*
X4236400Y2674339D01*
X4244061Y2671165D01*
X4252283Y2670083D01*
X4287717D01*
X4295939Y2671165D01*
X4303600Y2674339D01*
X4310180Y2679387D01*
X4315228Y2685966D01*
X4317294Y2690954D01*
X4322706D01*
X4324772Y2685966D01*
X4329820Y2679387D01*
X4336400Y2674339D01*
X4344061Y2671165D01*
X4352283Y2670083D01*
X4387717D01*
X4395939Y2671165D01*
X4403600Y2674339D01*
X4410180Y2679387D01*
X4415228Y2685966D01*
X4417294Y2690954D01*
X4422706D01*
X4424772Y2685966D01*
X4429820Y2679387D01*
X4436400Y2674339D01*
X4444061Y2671165D01*
X4452283Y2670083D01*
X4487717D01*
X4495939Y2671165D01*
X4503600Y2674339D01*
X4510180Y2679387D01*
X4515228Y2685966D01*
X4517294Y2690954D01*
X4522706D01*
X4524772Y2685966D01*
X4529820Y2679387D01*
X4536400Y2674339D01*
X4544061Y2671165D01*
X4552283Y2670083D01*
X4587717D01*
X4595939Y2671165D01*
X4603600Y2674339D01*
X4610180Y2679387D01*
X4615228Y2685966D01*
X4618402Y2693628D01*
X4619484Y2701850D01*
Y2808150D01*
X4618402Y2816372D01*
X4615228Y2824034D01*
X4610180Y2830613D01*
X4603600Y2835661D01*
X4595939Y2838835D01*
X4587717Y2839917D01*
D02*
G37*
G36*
X5121479Y2884213D02*
X5108521D01*
X5096005Y2880859D01*
X5084783Y2874380D01*
X5075620Y2865217D01*
X5069141Y2853995D01*
X5065788Y2841479D01*
Y2828521D01*
X5069141Y2816005D01*
X5075620Y2804783D01*
X5084783Y2795620D01*
X5096005Y2789141D01*
X5108521Y2785787D01*
X5121479D01*
X5133995Y2789141D01*
X5145217Y2795620D01*
X5154380Y2804783D01*
X5160859Y2816005D01*
X5164212Y2828521D01*
Y2841479D01*
X5160859Y2853995D01*
X5154380Y2865217D01*
X5145217Y2874380D01*
X5133995Y2880859D01*
X5121479Y2884213D01*
D02*
G37*
G36*
X2731811Y2661811D02*
X2715000D01*
Y2645000D01*
X2731811D01*
Y2661811D01*
D02*
G37*
G36*
X2705000D02*
X2688189D01*
Y2645000D01*
X2705000D01*
Y2661811D01*
D02*
G37*
G36*
X2731811Y2635000D02*
X2715000D01*
Y2618189D01*
X2731811D01*
Y2635000D01*
D02*
G37*
G36*
X2705000D02*
X2688189D01*
Y2618189D01*
X2705000D01*
Y2635000D01*
D02*
G37*
G36*
X5081479Y2669213D02*
X5068521D01*
X5056005Y2665859D01*
X5044783Y2659380D01*
X5035620Y2650217D01*
X5029141Y2638995D01*
X5025788Y2626479D01*
Y2613521D01*
X5029141Y2601005D01*
X5035620Y2589783D01*
X5044783Y2580620D01*
X5056005Y2574141D01*
X5068521Y2570787D01*
X5081479D01*
X5093995Y2574141D01*
X5105217Y2580620D01*
X5114380Y2589783D01*
X5120859Y2601005D01*
X5124212Y2613521D01*
Y2626479D01*
X5120859Y2638995D01*
X5114380Y2650217D01*
X5105217Y2659380D01*
X5093995Y2665859D01*
X5081479Y2669213D01*
D02*
G37*
G36*
X4956479Y2589213D02*
X4943521D01*
X4931005Y2585859D01*
X4919783Y2579380D01*
X4910620Y2570217D01*
X4904141Y2558995D01*
X4900788Y2546479D01*
Y2533521D01*
X4904141Y2521005D01*
X4910620Y2509783D01*
X4919783Y2500620D01*
X4931005Y2494141D01*
X4942748Y2490995D01*
X4953413Y2480330D01*
Y2444210D01*
X4950122Y2440919D01*
X4922318D01*
X4913541Y2449696D01*
X4901421Y2456693D01*
X4887903Y2460316D01*
X4873909D01*
X4860391Y2456693D01*
X4848271Y2449696D01*
X4838376Y2439801D01*
X4831378Y2427681D01*
X4827756Y2414163D01*
Y2400169D01*
X4831378Y2386651D01*
X4838376Y2374531D01*
X4848271Y2364636D01*
X4860391Y2357639D01*
X4873909Y2354016D01*
X4887903D01*
X4901421Y2357639D01*
X4913541Y2364636D01*
X4922318Y2373413D01*
X4964104D01*
X4972840Y2374563D01*
X4980980Y2377935D01*
X4987971Y2383299D01*
X5011033Y2406361D01*
X5016397Y2413352D01*
X5019769Y2421492D01*
X5020919Y2430229D01*
Y2494311D01*
X5019769Y2503047D01*
X5016397Y2511188D01*
X5011033Y2518178D01*
X4998468Y2530743D01*
X4999212Y2533521D01*
Y2546479D01*
X4995859Y2558995D01*
X4989380Y2570217D01*
X4980217Y2579380D01*
X4968995Y2585859D01*
X4956479Y2589213D01*
D02*
G37*
G36*
X4671417Y2453583D02*
X4630000D01*
Y2412166D01*
X4671417D01*
Y2453583D01*
D02*
G37*
G36*
X4620000D02*
X4578583D01*
Y2412166D01*
X4620000D01*
Y2453583D01*
D02*
G37*
G36*
X4136417Y2451417D02*
X4095000D01*
Y2410000D01*
X4136417D01*
Y2451417D01*
D02*
G37*
G36*
X4671417Y2402166D02*
X4630000D01*
Y2360749D01*
X4671417D01*
Y2402166D01*
D02*
G37*
G36*
X4620000D02*
X4578583D01*
Y2360749D01*
X4620000D01*
Y2402166D01*
D02*
G37*
G36*
X4136417Y2400000D02*
X4095000D01*
Y2358583D01*
X4136417D01*
Y2400000D01*
D02*
G37*
G36*
X4085000D02*
X4043583D01*
Y2358583D01*
X4085000D01*
Y2400000D01*
D02*
G37*
G36*
X4887406Y2279370D02*
X4885906D01*
Y2235000D01*
X4930276D01*
Y2236500D01*
X4926912Y2249056D01*
X4920412Y2260314D01*
X4911220Y2269506D01*
X4899962Y2276006D01*
X4887406Y2279370D01*
D02*
G37*
G36*
X4875906D02*
X4874406D01*
X4861850Y2276006D01*
X4850592Y2269506D01*
X4841400Y2260314D01*
X4834900Y2249056D01*
X4831536Y2236500D01*
Y2235000D01*
X4875906D01*
Y2279370D01*
D02*
G37*
G36*
X4352406Y2277204D02*
X4350906D01*
Y2232834D01*
X4395276D01*
Y2234334D01*
X4391912Y2246890D01*
X4385412Y2258148D01*
X4376220Y2267340D01*
X4364962Y2273840D01*
X4352406Y2277204D01*
D02*
G37*
G36*
X4340906D02*
X4339406D01*
X4326850Y2273840D01*
X4315592Y2267340D01*
X4306400Y2258148D01*
X4299900Y2246890D01*
X4296536Y2234334D01*
Y2232834D01*
X4340906D01*
Y2277204D01*
D02*
G37*
G36*
X4930276Y2225000D02*
X4885906D01*
Y2180630D01*
X4887406D01*
X4899962Y2183994D01*
X4911220Y2190494D01*
X4920412Y2199686D01*
X4926912Y2210944D01*
X4930276Y2223500D01*
Y2225000D01*
D02*
G37*
G36*
X4875906D02*
X4831536D01*
Y2223500D01*
X4834900Y2210944D01*
X4841400Y2199686D01*
X4850592Y2190494D01*
X4861850Y2183994D01*
X4874406Y2180630D01*
X4875906D01*
Y2225000D01*
D02*
G37*
G36*
X4395276Y2222834D02*
X4350906D01*
Y2178464D01*
X4352406D01*
X4364962Y2181828D01*
X4376220Y2188328D01*
X4385412Y2197520D01*
X4391912Y2208778D01*
X4395276Y2221334D01*
Y2222834D01*
D02*
G37*
G36*
X4340906D02*
X4296536D01*
Y2221334D01*
X4299900Y2208778D01*
X4306400Y2197520D01*
X4315592Y2188328D01*
X4326850Y2181828D01*
X4339406Y2178464D01*
X4340906D01*
Y2222834D01*
D02*
G37*
G36*
X4631997Y2283150D02*
X4618003D01*
X4604485Y2279528D01*
X4592365Y2272530D01*
X4582470Y2262635D01*
X4575472Y2250515D01*
X4571850Y2236997D01*
Y2223003D01*
X4575472Y2209485D01*
X4582470Y2197365D01*
X4592365Y2187470D01*
X4604485Y2180472D01*
X4618003Y2176850D01*
X4631997D01*
X4645515Y2180472D01*
X4657635Y2187470D01*
X4667530Y2197365D01*
X4674528Y2209485D01*
X4678150Y2223003D01*
Y2236997D01*
X4674528Y2250515D01*
X4667530Y2262635D01*
X4657635Y2272530D01*
X4645515Y2279528D01*
X4631997Y2283150D01*
D02*
G37*
G36*
X4096997Y2280984D02*
X4083003D01*
X4069485Y2277361D01*
X4057365Y2270364D01*
X4047470Y2260469D01*
X4040472Y2248349D01*
X4036850Y2234831D01*
Y2220837D01*
X4040472Y2207319D01*
X4047470Y2195199D01*
X4057365Y2185304D01*
X4069485Y2178307D01*
X4083003Y2174684D01*
X4096997D01*
X4110515Y2178307D01*
X4122635Y2185304D01*
X4132530Y2195199D01*
X4139528Y2207319D01*
X4143150Y2220837D01*
Y2234831D01*
X4139528Y2248349D01*
X4132530Y2260469D01*
X4122635Y2270364D01*
X4110515Y2277361D01*
X4096997Y2280984D01*
D02*
G37*
G36*
X5081479Y2269213D02*
X5068521D01*
X5056005Y2265859D01*
X5044783Y2259380D01*
X5035620Y2250217D01*
X5029141Y2238995D01*
X5025788Y2226479D01*
Y2213521D01*
X5029141Y2201005D01*
X5035620Y2189783D01*
X5044783Y2180620D01*
X5056005Y2174141D01*
X5068521Y2170787D01*
X5081479D01*
X5093995Y2174141D01*
X5105217Y2180620D01*
X5114380Y2189783D01*
X5120859Y2201005D01*
X5124212Y2213521D01*
Y2226479D01*
X5120859Y2238995D01*
X5114380Y2250217D01*
X5105217Y2259380D01*
X5093995Y2265859D01*
X5081479Y2269213D01*
D02*
G37*
G36*
X3286479Y2254213D02*
X3273521D01*
X3261005Y2250859D01*
X3249783Y2244380D01*
X3240620Y2235217D01*
X3234141Y2223995D01*
X3230787Y2211479D01*
Y2198521D01*
X3234141Y2186005D01*
X3240620Y2174783D01*
X3249783Y2165620D01*
X3261005Y2159141D01*
X3273521Y2155787D01*
X3286479D01*
X3298995Y2159141D01*
X3310217Y2165620D01*
X3319380Y2174783D01*
X3325859Y2186005D01*
X3329213Y2198521D01*
Y2211479D01*
X3325859Y2223995D01*
X3319380Y2235217D01*
X3310217Y2244380D01*
X3298995Y2250859D01*
X3286479Y2254213D01*
D02*
G37*
%LPD*%
D17*
X2050000Y3039370D02*
D03*
Y2960630D02*
D03*
D18*
X2015000Y2862204D02*
D03*
Y3137796D02*
D03*
D19*
X2917500Y2898924D02*
D03*
X2892500D02*
D03*
X2867500D02*
D03*
X2842500D02*
D03*
X2817500D02*
D03*
X2792500D02*
D03*
X2767500D02*
D03*
X2742500D02*
D03*
Y3121076D02*
D03*
X2767500D02*
D03*
X2792500D02*
D03*
X2817500D02*
D03*
X2842500D02*
D03*
X2867500D02*
D03*
X2892500D02*
D03*
X2917500D02*
D03*
D20*
X2888898Y3550000D02*
D03*
X2951102D02*
D03*
X2563898Y3045000D02*
D03*
X2626102D02*
D03*
X2888898Y3650000D02*
D03*
X2951102D02*
D03*
X2563898Y2965000D02*
D03*
X2626102D02*
D03*
D21*
X2827952Y2425000D02*
D03*
X2622048D02*
D03*
D22*
X2460000Y3046536D02*
D03*
Y3113464D02*
D03*
Y2893072D02*
D03*
Y2960000D02*
D03*
D23*
X2818504Y2765000D02*
D03*
X2881496D02*
D03*
D33*
X4545000Y3425000D02*
D03*
X4702480D02*
D03*
X2740000Y3230000D02*
D03*
Y3330000D02*
D03*
Y3430000D02*
D03*
Y3530000D02*
D03*
Y3630000D02*
D03*
X4090000Y3520000D02*
D03*
X4190000Y3420000D02*
D03*
Y3520000D02*
D03*
X4290000Y3420000D02*
D03*
X4090000D02*
D03*
X4625000Y2230000D02*
D03*
X4880906D02*
D03*
Y2407166D02*
D03*
X4090000Y2227834D02*
D03*
X4345906D02*
D03*
Y2405000D02*
D03*
D34*
X3270000Y2755000D02*
D03*
X3370000D02*
D03*
X3470000D02*
D03*
X3570000D02*
D03*
X3670000D02*
D03*
X3770000D02*
D03*
X3870000D02*
D03*
X3970000D02*
D03*
X4070000D02*
D03*
X4170000D02*
D03*
X4270000D02*
D03*
X4370000D02*
D03*
X4470000D02*
D03*
X4570000D02*
D03*
Y3055000D02*
D03*
X4470000D02*
D03*
X4370000D02*
D03*
X4270000D02*
D03*
X4170000D02*
D03*
X4070000D02*
D03*
X3970000D02*
D03*
X3870000D02*
D03*
X3770000D02*
D03*
X3670000D02*
D03*
X3570000D02*
D03*
X3470000D02*
D03*
X3370000D02*
D03*
X3270000D02*
D03*
D42*
X2619448Y2640000D02*
D03*
X2710000D02*
D03*
D43*
X3270000D02*
Y2755000D01*
Y2640000D02*
X3325000Y2585000D01*
X2454114Y3119350D02*
X2460000Y3113464D01*
X2398976Y3119350D02*
X2454114D01*
X2385197Y3133130D02*
X2398976Y3119350D01*
X2019666Y3133130D02*
X2385197D01*
X2015000Y3137796D02*
X2019666Y3133130D01*
X2050000Y3039370D02*
X2454095D01*
X2459370Y2960630D02*
X2460000Y2960000D01*
X2050000Y2960630D02*
X2459370D01*
X2818504Y2434448D02*
Y2765000D01*
X3350877Y2870000D02*
X3369816Y2851061D01*
X3245000Y2870000D02*
X3350877D01*
X3265926Y2924179D02*
X3435821D01*
X3165669Y2949331D02*
X3245000Y2870000D01*
X3435821Y2924179D02*
X3470000Y2890000D01*
X3207008Y2983097D02*
X3265926Y2924179D01*
X4015000Y3390000D02*
Y3539652D01*
Y3390000D02*
X4170000Y3235000D01*
X4015000Y3539652D02*
X4062277Y3586929D01*
X4170000Y3055000D02*
Y3235000D01*
X4123071Y3586929D02*
X4190000Y3520000D01*
X4062277Y3586929D02*
X4123071D01*
X3165669Y2949331D02*
Y3349331D01*
X3369816Y2755184D02*
X3370000Y2755000D01*
X3369816Y2755184D02*
Y2851061D01*
X2951102Y3648426D02*
X3207008Y3392520D01*
Y2983097D02*
Y3392520D01*
X3470000Y2755000D02*
Y2890000D01*
X2951102Y3648426D02*
Y3650000D01*
X2971299Y3543701D02*
X3165669Y3349331D01*
X2955826Y3543701D02*
X2971299D01*
X2951102Y3548425D02*
X2955826Y3543701D01*
X2951102Y3548425D02*
Y3550000D01*
X2460000Y2960000D02*
X2465000Y2965000D01*
X2563898D01*
X2507244Y2901536D02*
X2543464D01*
X2506654Y2900946D02*
X2507244Y2901536D01*
X2465905Y2900946D02*
X2506654D01*
X2460000Y2895041D02*
X2465905Y2900946D01*
X2460000Y2893072D02*
Y2895041D01*
X2543464Y2901536D02*
X2710000Y2735000D01*
X2460768Y3045768D02*
X2563130D01*
X2460000Y3046536D02*
X2460768Y3045768D01*
X2563130D02*
X2563898Y3045000D01*
X2465000Y3118464D02*
X2524803D01*
X2460000Y3113464D02*
X2465000Y3118464D01*
X2638464Y3128464D02*
X2740000Y3230000D01*
X2534803Y3128464D02*
X2638464D01*
X2524803Y3118464D02*
X2534803Y3128464D01*
X2888898Y3548425D02*
Y3550000D01*
X2884174Y3543701D02*
X2888898Y3548425D01*
X2749793Y3539793D02*
X2778721D01*
X2781734Y3542806D02*
X2868030D01*
X2868924Y3543701D02*
X2884174D01*
X2740000Y3530000D02*
X2749793Y3539793D01*
X2778721D02*
X2781734Y3542806D01*
X2868030D02*
X2868924Y3543701D01*
X2778721Y3639793D02*
X2781734Y3642806D01*
X2868030D02*
X2868924Y3643701D01*
X2884174D02*
X2888898Y3648425D01*
X2740000Y3630000D02*
X2749793Y3639793D01*
X2778721D01*
X2781734Y3642806D02*
X2868030D01*
X2888898Y3648425D02*
Y3650000D01*
X2868924Y3643701D02*
X2884174D01*
X3655000Y3510000D02*
X3835000D01*
X3900000Y3575000D01*
X3655000Y3205433D02*
X3770000Y3090433D01*
X3655000Y3205433D02*
Y3510000D01*
X3770000Y3055000D02*
Y3090433D01*
X3646714Y3501714D02*
X3655000Y3510000D01*
X3365000Y3246576D02*
X3620138Y3501714D01*
X3646714D01*
X4570000Y3055000D02*
Y3090433D01*
X4702480Y3222913D02*
Y3425000D01*
X4570000Y3090433D02*
X4702480Y3222913D01*
X4370000Y3055000D02*
Y3240000D01*
X4190000Y3420000D02*
X4370000Y3240000D01*
X2710000Y2640000D02*
Y2735000D01*
X3970000Y3055000D02*
Y3250000D01*
D44*
X3184213Y2390788D02*
X3260119Y2314882D01*
X3459882D02*
X3535000Y2390000D01*
X3260119Y2314882D02*
X3459882D01*
X2619448Y2640000D02*
Y2710552D01*
X2515000Y2815000D02*
X2619448Y2710552D01*
X2249212Y2815000D02*
X2515000D01*
X2202008Y2862204D02*
X2249212Y2815000D01*
X2015000Y2862204D02*
X2202008D01*
X4550000Y2540000D02*
X4725000Y2715000D01*
X4054252Y2989252D02*
Y3039252D01*
X3888974Y2328974D02*
X4033974Y2473974D01*
X4820000Y2715000D02*
Y2717564D01*
X4054252Y3039252D02*
X4070000Y3055000D01*
X4033974Y2533974D02*
X4040000Y2540000D01*
X3671938Y2380157D02*
X3695000Y2357095D01*
X3870000Y2755000D02*
X3885748Y2770748D01*
X4750000Y3011938D02*
X4773062Y3035000D01*
X4750000Y2720000D02*
Y3011938D01*
X4745000Y2715000D02*
X4820000D01*
X3866703Y2328974D02*
X3888974D01*
X4033974Y2473974D02*
Y2533974D01*
X3695000Y2319173D02*
Y2325000D01*
X2827952Y2406142D02*
Y2425000D01*
X3885748Y2820748D02*
X4054252Y2989252D01*
X3650000Y2390000D02*
X3659843Y2380157D01*
X4745000Y2715000D02*
X4750000Y2720000D01*
X3885748Y2770748D02*
Y2820748D01*
Y2694252D02*
X4040000Y2540000D01*
X4481102Y2471102D02*
X4550000Y2540000D01*
X3535000Y2390000D02*
X3650000D01*
X3680000Y2304173D02*
X3695000Y2319173D01*
X4040000Y2540000D02*
X4313910D01*
X4773062Y3035000D02*
X4830000D01*
X3659843Y2380157D02*
X3671938D01*
X4725000Y2715000D02*
X4745000D01*
X3695000Y2325000D02*
Y2357095D01*
X3862729Y2325000D02*
X3866703Y2328974D01*
X3680000Y2205000D02*
Y2304173D01*
X2843306Y2390788D02*
X3070000D01*
X3695000Y2325000D02*
X3862729D01*
X3885748Y2694252D02*
Y2739252D01*
X4313910Y2540000D02*
X4382807Y2471102D01*
X3070000Y2390788D02*
X3184213D01*
X4382807Y2471102D02*
X4481102D01*
X2827952Y2406142D02*
X2843306Y2390788D01*
X3870000Y2755000D02*
X3885748Y2739252D01*
X4185721Y3805000D02*
X4372581Y3618140D01*
X2665000Y3781938D02*
X2688062Y3805000D01*
X4185721D01*
X2665000Y3488508D02*
Y3781938D01*
X4950000Y2531477D02*
X4987166Y2494311D01*
X4964104Y2407166D02*
X4987166Y2430229D01*
Y2494311D01*
X4880906Y2407166D02*
X4964104D01*
X4950000Y2531477D02*
Y2540000D01*
X4297533Y3427533D02*
X4349518D01*
X4372581Y3450595D01*
Y3618140D01*
X4290000Y3420000D02*
X4297533Y3427533D01*
X2665000Y3488508D02*
X2703823Y3449685D01*
X2709662D01*
X2729347Y3430000D01*
X2740000D01*
X4830000Y3135000D02*
X4840327Y3145327D01*
X2619448Y2427600D02*
X2622048Y2425000D01*
X2619448Y2427600D02*
Y2640000D01*
D45*
X2867500Y3052500D02*
X2870000Y3050000D01*
X2867500Y3052500D02*
Y3121076D01*
X2870000Y3050000D02*
X3009620D01*
X2792500Y2972500D02*
X2870000Y3050000D01*
X2792500Y2898924D02*
Y2972500D01*
X3009620Y3050000D02*
X3065000Y3105380D01*
X2843090Y2843523D02*
X2998523D01*
X2842500D02*
Y2898924D01*
Y2803996D02*
Y2843523D01*
X2998523D02*
X3065000Y2910000D01*
X2842500Y2803996D02*
X2881496Y2765000D01*
X2817500Y2766004D02*
Y2898924D01*
Y2766004D02*
X2818504Y2765000D01*
X2767500Y2898924D02*
X2792500D01*
X3065000Y3105380D02*
Y3110000D01*
X2840000Y3230000D02*
X2841421Y3228579D01*
Y3122155D02*
X2842500Y3121076D01*
X2841421Y3122155D02*
Y3228579D01*
X2816421Y3122155D02*
X2817500Y3121076D01*
X2816421Y3122155D02*
Y3164210D01*
X2818504Y2434448D02*
X2827952Y2425000D01*
X2888898Y3358048D02*
Y3550000D01*
Y3358048D02*
X2917500Y3329446D01*
Y3126076D02*
Y3329446D01*
X2687178Y3126076D02*
X2742500D01*
X2635276Y3074174D02*
X2687178Y3126076D01*
X2633700Y3074174D02*
X2635276D01*
X2633700Y3052598D02*
Y3074174D01*
X2626102Y3045000D02*
X2633700Y3052598D01*
X2687178Y2883924D02*
X2740831D01*
X2635276Y2935826D02*
X2687178Y2883924D01*
X2633700Y2935826D02*
X2635276D01*
X2633700D02*
Y2957402D01*
X2626102Y2965000D02*
X2633700Y2957402D01*
X2750631Y3230000D02*
X2816421Y3164210D01*
X2740000Y3230000D02*
X2750631D01*
D46*
X3325000Y2585000D02*
D03*
Y2385000D02*
D03*
X5115000Y2835000D02*
D03*
Y3235000D02*
D03*
X5075000Y2220000D02*
D03*
Y2620000D02*
D03*
X4040000Y2540000D02*
D03*
X4440000D02*
D03*
X3900000Y3675000D02*
D03*
Y3575000D02*
D03*
X3065000Y2910000D02*
D03*
Y3110000D02*
D03*
X3255000Y3510000D02*
D03*
X3655000D02*
D03*
X3770000Y3250000D02*
D03*
X3970000D02*
D03*
X3895000Y2535000D02*
D03*
Y2335000D02*
D03*
X3575000Y3695000D02*
D03*
X3375000D02*
D03*
X3280000Y2205000D02*
D03*
X3680000D02*
D03*
X4830000Y3135000D02*
D03*
Y3035000D02*
D03*
X4820000Y2815000D02*
D03*
Y2715000D02*
D03*
X4950000Y2540000D02*
D03*
X4550000D02*
D03*
D47*
X2740000Y3730000D02*
D03*
D48*
X3365000Y3246576D02*
D03*
X3070000Y2390788D02*
D03*
X3650000Y2390000D02*
D03*
D49*
X3365000Y3345000D02*
D03*
X3070000Y2489212D02*
D03*
X3650000Y2488426D02*
D03*
D50*
X4290000Y3520000D02*
D03*
D51*
X4625000Y2407166D02*
D03*
X4090000Y2405000D02*
D03*
D52*
X2840000Y3230000D02*
D03*
X2710000Y2735000D02*
D03*
M02*
