G04*
G04 #@! TF.GenerationSoftware,Altium Limited,Altium Designer,24.9.1 (31)*
G04*
G04 Layer_Color=65535*
%FSLAX26Y26*%
%MOIN*%
G70*
G04*
G04 #@! TF.SameCoordinates,85691A34-BE1F-424B-AAFF-A29D0EFE2AC2*
G04*
G04*
G04 #@! TF.FilePolarity,Positive*
G04*
G01*
G75*
%ADD10C,0.006000*%
%ADD11C,0.007874*%
%ADD12C,0.005000*%
%ADD13C,0.000000*%
%ADD14C,0.010000*%
%ADD15C,0.009842*%
%ADD16C,0.008000*%
G36*
X2775000Y2856347D02*
Y2846347D01*
X2760000D01*
Y2856347D01*
X2775000D01*
D02*
G37*
D10*
X4821740Y3425000D02*
G03*
X4821740Y3425000I-198000J0D01*
G01*
X2933500Y2941004D02*
Y3078996D01*
X2726500Y2941004D02*
Y3078996D01*
X4836740Y3425000D02*
X4886740D01*
X4861740Y3400000D02*
Y3450000D01*
X3190000Y3057500D02*
X3226972D01*
X4650000Y2752500D02*
Y3057500D01*
X4613028D02*
X4650000D01*
X3190000Y2752500D02*
Y3057500D01*
Y2752500D02*
X3226900D01*
X3313100D02*
X3326972D01*
X3413028D02*
X3426972D01*
X3513028D02*
X3526972D01*
X3613028D02*
X3626972D01*
X3713028D02*
X3726972D01*
X3813028D02*
X3826972D01*
X3913028D02*
X3926972D01*
X4013028D02*
X4026972D01*
X4113028D02*
X4126972D01*
X4213028D02*
X4226972D01*
X4313028D02*
X4326972D01*
X4413028D02*
X4426972D01*
X4513028D02*
X4526972D01*
X4613028D02*
X4650000D01*
X4513028Y3057500D02*
X4526972D01*
X4413028D02*
X4426972D01*
X4313028D02*
X4326972D01*
X4213028D02*
X4226972D01*
X4113028D02*
X4126972D01*
X4013028D02*
X4026972D01*
X3913028D02*
X3926972D01*
X3813028D02*
X3826972D01*
X3713028D02*
X3726972D01*
X3613028D02*
X3626972D01*
X3513028D02*
X3526972D01*
X3413028D02*
X3426972D01*
X3313028D02*
X3326972D01*
D11*
X3368937Y3139764D02*
G03*
X3368937Y3139764I-3937J0D01*
G01*
X3073937Y2283976D02*
G03*
X3073937Y2283976I-3937J0D01*
G01*
X2747401Y2640000D02*
G03*
X2747401Y2640000I-3937J0D01*
G01*
X3653937Y2283189D02*
G03*
X3653937Y2283189I-3937J0D01*
G01*
X3250000Y2660000D02*
X3400000D01*
Y2310000D02*
Y2660000D01*
X3250000Y2310000D02*
X3400000D01*
X3250000D02*
Y2660000D01*
X5075000Y2915000D02*
X5155000D01*
X5075000D02*
Y3155000D01*
X5155000D01*
Y2915000D02*
Y3155000D01*
X5115000Y2875000D02*
Y2915000D01*
Y3155000D02*
Y3195000D01*
X5035000Y2300000D02*
X5115000D01*
X5035000D02*
Y2540000D01*
X5115000D01*
Y2300000D02*
Y2540000D01*
X5075000Y2260000D02*
Y2300000D01*
Y2540000D02*
Y2580000D01*
X4120000Y2500000D02*
Y2580000D01*
X4360000D01*
Y2500000D02*
Y2580000D01*
X4120000Y2500000D02*
X4360000D01*
X4080000Y2540000D02*
X4120000D01*
X4360000D02*
X4400000D01*
X2690000Y3180000D02*
Y3780000D01*
X2790000Y3180000D02*
Y3780000D01*
X2690000D02*
X2790000D01*
X2690000Y3180000D02*
X2790000D01*
X2990000Y2835000D02*
Y3185000D01*
Y2835000D02*
X3140000D01*
Y3185000D01*
X2990000D02*
X3140000D01*
X3295000Y3510000D02*
X3335000D01*
X3575000D02*
X3615000D01*
X3335000Y3550000D02*
X3575000D01*
X3335000Y3470000D02*
Y3550000D01*
Y3470000D02*
X3575000D01*
Y3550000D01*
X3695000Y3325000D02*
X4045000D01*
X3695000Y3175000D02*
Y3325000D01*
Y3175000D02*
X4045000D01*
Y3325000D01*
X4040000Y3570000D02*
X4231666D01*
X4040000D02*
X4340000D01*
X4040000Y3370000D02*
X4340000D01*
Y3570000D01*
X4040000Y3370000D02*
Y3570000D01*
X3820000Y2610000D02*
X3970000D01*
Y2260000D02*
Y2610000D01*
X3820000Y2260000D02*
X3970000D01*
X3820000D02*
Y2610000D01*
X3300000Y3620000D02*
X3650000D01*
Y3770000D01*
X3300000D02*
X3650000D01*
X3300000Y3620000D02*
Y3770000D01*
X3360000Y2165000D02*
Y2245000D01*
X3600000D01*
Y2165000D02*
Y2245000D01*
X3360000Y2165000D02*
X3600000D01*
X3320000Y2205000D02*
X3360000D01*
X3600000D02*
X3640000D01*
X4556496Y2177166D02*
Y2457166D01*
Y2177166D02*
X4945000D01*
Y2457166D01*
X4556496D02*
X4945000D01*
X4021496Y2175000D02*
Y2455000D01*
Y2175000D02*
X4410000D01*
Y2455000D01*
X4021496D02*
X4410000D01*
X4870000Y2540000D02*
X4910000D01*
X4590000D02*
X4630000D01*
Y2500000D02*
X4870000D01*
Y2580000D01*
X4630000D02*
X4870000D01*
X4630000Y2500000D02*
Y2580000D01*
D12*
X3328129Y3387048D02*
G03*
X3328129Y3204528I36871J-91260D01*
G01*
X3401871D02*
G03*
X3401871Y3387048I-36871J91260D01*
G01*
X3106871Y2348740D02*
G03*
X3106871Y2531260I-36871J91260D01*
G01*
X3033129D02*
G03*
X3033129Y2348740I36871J-91260D01*
G01*
X3613129Y2530472D02*
G03*
X3613129Y2347953I36871J-91260D01*
G01*
X3686871D02*
G03*
X3686871Y2530472I-36871J91260D01*
G01*
X3955000Y3545000D02*
Y3702480D01*
X3845000Y3542520D02*
Y3700000D01*
X2888504Y3577166D02*
X2951496D01*
X2888504Y3522834D02*
X2951496D01*
X2563504Y3072166D02*
X2626496D01*
X2563504Y3017834D02*
X2626496D01*
X2681692Y2362008D02*
X2768308D01*
X2681692Y2487992D02*
X2768308D01*
X2888504Y3677166D02*
X2951496D01*
X2888504Y3622834D02*
X2951496D01*
X2844882Y2780748D02*
X2855118D01*
X2844882Y2749252D02*
X2855118D01*
X2563504Y2992166D02*
X2626496D01*
X2563504Y2937834D02*
X2626496D01*
X2631260Y2664606D02*
X2698188D01*
X2631260Y2615394D02*
X2698188D01*
D13*
X2871732Y2350197D02*
G03*
X2871732Y2350197I-5000J0D01*
G01*
D14*
X4790949Y3202154D02*
G03*
X4870569Y3201637I39051J-117154D01*
G01*
X4780949Y2882154D02*
G03*
X4860569Y2881637I39051J-117154D01*
G01*
X1771890Y2761812D02*
X1885000D01*
X1771890Y2765000D02*
Y3238190D01*
X2327008D01*
X1885000Y2761812D02*
X2327008D01*
Y3238190D01*
X4791466Y3201636D02*
X4870570D01*
X4781466Y2881636D02*
X4860570D01*
X2545803Y2870321D02*
Y2909679D01*
X2565482D01*
X2572041Y2903119D01*
Y2890000D01*
X2565482Y2883441D01*
X2545803D01*
X2558922D02*
X2572041Y2870321D01*
X2585161D02*
X2598280D01*
X2591720D01*
Y2909679D01*
X2585161Y2903119D01*
X2617959D02*
X2624518Y2909679D01*
X2637637D01*
X2644197Y2903119D01*
Y2876881D01*
X2637637Y2870321D01*
X2624518D01*
X2617959Y2876881D01*
Y2903119D01*
X2550000Y3615000D02*
Y3654357D01*
X2569679D01*
X2576238Y3647798D01*
Y3634679D01*
X2569679Y3628119D01*
X2550000D01*
X2563119D02*
X2576238Y3615000D01*
X2589357Y3654357D02*
X2615596Y3615000D01*
Y3654357D02*
X2589357Y3615000D01*
X4971238Y3537798D02*
X4964679Y3544357D01*
X4951560D01*
X4945000Y3537798D01*
Y3531238D01*
X4951560Y3524679D01*
X4964679D01*
X4971238Y3518119D01*
Y3511560D01*
X4964679Y3505000D01*
X4951560D01*
X4945000Y3511560D01*
X5010596Y3544357D02*
X4984357D01*
Y3505000D01*
X5010596D01*
X4984357Y3524679D02*
X4997476D01*
X5049953Y3537798D02*
X5043394Y3544357D01*
X5030274D01*
X5023715Y3537798D01*
Y3511560D01*
X5030274Y3505000D01*
X5043394D01*
X5049953Y3511560D01*
X4645000Y3673119D02*
Y3712477D01*
X4664679D01*
X4671238Y3705917D01*
Y3692798D01*
X4664679Y3686238D01*
X4645000D01*
X4658119D02*
X4671238Y3673119D01*
X4690917D02*
X4704036D01*
X4710596Y3679679D01*
Y3692798D01*
X4704036Y3699357D01*
X4690917D01*
X4684357Y3692798D01*
Y3679679D01*
X4690917Y3673119D01*
X4749953Y3712477D02*
Y3673119D01*
X4730274D01*
X4723715Y3679679D01*
Y3692798D01*
X4730274Y3699357D01*
X4749953D01*
X4763072D02*
Y3673119D01*
Y3686238D01*
X4769632Y3692798D01*
X4776191Y3699357D01*
X4782751D01*
X4802430Y3673119D02*
X4815549D01*
X4808989D01*
Y3699357D01*
X4802430D01*
X4848346Y3660000D02*
X4854906D01*
X4861466Y3666559D01*
Y3699357D01*
X4841787D01*
X4835227Y3692798D01*
Y3679679D01*
X4841787Y3673119D01*
X4861466D01*
X4881144D02*
X4894264D01*
X4900823Y3679679D01*
Y3692798D01*
X4894264Y3699357D01*
X4881144D01*
X4874585Y3692798D01*
Y3679679D01*
X4881144Y3673119D01*
X4953300D02*
Y3712477D01*
X4972978D01*
X4979538Y3705917D01*
Y3692798D01*
X4972978Y3686238D01*
X4953300D01*
X4992657Y3673119D02*
X5005776D01*
X4999217D01*
Y3699357D01*
X4992657D01*
X5025455Y3673119D02*
Y3699357D01*
X5045133D01*
X5051693Y3692798D01*
Y3673119D01*
X5071372Y3705917D02*
Y3699357D01*
X5064812D01*
X5077931D01*
X5071372D01*
Y3679679D01*
X5077931Y3673119D01*
X5104170D02*
X5117289D01*
X5123848Y3679679D01*
Y3692798D01*
X5117289Y3699357D01*
X5104170D01*
X5097610Y3692798D01*
Y3679679D01*
X5104170Y3673119D01*
X4630000Y3797477D02*
X4656238D01*
X4643119D01*
Y3758119D01*
X4669357D02*
X4682476D01*
X4675917D01*
Y3784357D01*
X4669357D01*
X4708715D02*
X4721834D01*
X4728393Y3777798D01*
Y3758119D01*
X4708715D01*
X4702155Y3764679D01*
X4708715Y3771238D01*
X4728393D01*
X4754632Y3745000D02*
X4761191D01*
X4767751Y3751559D01*
Y3784357D01*
X4748072D01*
X4741513Y3777798D01*
Y3764679D01*
X4748072Y3758119D01*
X4767751D01*
X4787430D02*
X4800549D01*
X4807108Y3764679D01*
Y3777798D01*
X4800549Y3784357D01*
X4787430D01*
X4780870Y3777798D01*
Y3764679D01*
X4787430Y3758119D01*
X4879264Y3797477D02*
X4866144D01*
X4859585Y3790917D01*
Y3764679D01*
X4866144Y3758119D01*
X4879264D01*
X4885823Y3764679D01*
Y3790917D01*
X4879264Y3797477D01*
X4898942Y3758119D02*
X4912061D01*
X4905502D01*
Y3797477D01*
X4898942D01*
X4931740Y3758119D02*
X4944859D01*
X4938300D01*
Y3784357D01*
X4931740D01*
X4964538D02*
X4977657Y3758119D01*
X4990776Y3784357D01*
X5023574Y3758119D02*
X5010455D01*
X5003895Y3764679D01*
Y3777798D01*
X5010455Y3784357D01*
X5023574D01*
X5030133Y3777798D01*
Y3771238D01*
X5003895D01*
X5043253Y3758119D02*
X5056372D01*
X5049812D01*
Y3784357D01*
X5043253D01*
X5076050D02*
Y3758119D01*
Y3771238D01*
X5082610Y3777798D01*
X5089169Y3784357D01*
X5095729D01*
X5121967D02*
X5135087D01*
X5141646Y3777798D01*
Y3758119D01*
X5121967D01*
X5115408Y3764679D01*
X5121967Y3771238D01*
X5141646D01*
X4936238Y3585000D02*
X4910000D01*
X4936238Y3611238D01*
Y3617798D01*
X4929679Y3624357D01*
X4916560D01*
X4910000Y3617798D01*
X4949357D02*
X4955917Y3624357D01*
X4969036D01*
X4975596Y3617798D01*
Y3611238D01*
X4969036Y3604679D01*
X4962476D01*
X4969036D01*
X4975596Y3598119D01*
Y3591560D01*
X4969036Y3585000D01*
X4955917D01*
X4949357Y3591560D01*
X4988715Y3585000D02*
X5014953Y3611238D01*
X5054310Y3585000D02*
X5028072D01*
X5054310Y3611238D01*
Y3617798D01*
X5047751Y3624357D01*
X5034632D01*
X5028072Y3617798D01*
X5087108Y3585000D02*
Y3624357D01*
X5067430Y3604679D01*
X5093668D01*
X2545000Y3549357D02*
X2571238D01*
X2558119D01*
Y3510000D01*
X2584357Y3549357D02*
X2610596Y3510000D01*
Y3549357D02*
X2584357Y3510000D01*
X4980000Y2985000D02*
Y3011238D01*
X4993119Y3024357D01*
X5006238Y3011238D01*
Y2985000D01*
Y3004679D01*
X4980000D01*
Y3174357D02*
Y3135000D01*
Y3148119D01*
X5006238Y3174357D01*
X4986560Y3154679D01*
X5006238Y3135000D01*
X4965000Y2680000D02*
Y2706238D01*
X4978119Y2719357D01*
X4991238Y2706238D01*
Y2680000D01*
Y2699679D01*
X4965000D01*
Y2849357D02*
Y2810000D01*
Y2823119D01*
X4991238Y2849357D01*
X4971560Y2829679D01*
X4991238Y2810000D01*
X3178440Y2643119D02*
X3171881Y2649679D01*
X3158762D01*
X3152202Y2643119D01*
Y2616881D01*
X3158762Y2610321D01*
X3171881D01*
X3178440Y2616881D01*
X3191560Y2643119D02*
X3198119Y2649679D01*
X3211238D01*
X3217798Y2643119D01*
Y2636559D01*
X3211238Y2630000D01*
X3204679D01*
X3211238D01*
X3217798Y2623440D01*
Y2616881D01*
X3211238Y2610321D01*
X3198119D01*
X3191560Y2616881D01*
X4353762Y3300321D02*
Y3339679D01*
X4373440D01*
X4380000Y3333119D01*
Y3320000D01*
X4373440Y3313440D01*
X4353762D01*
X4393119Y3300321D02*
X4406238D01*
X4399679D01*
Y3339679D01*
X4393119Y3333119D01*
X2903762Y3229679D02*
Y3196881D01*
X2910321Y3190321D01*
X2923441D01*
X2930000Y3196881D01*
Y3229679D01*
X2943119Y3190321D02*
X2956238D01*
X2949679D01*
Y3229679D01*
X2943119Y3223119D01*
X4078440Y2138119D02*
X4071881Y2144679D01*
X4058762D01*
X4052202Y2138119D01*
Y2131559D01*
X4058762Y2125000D01*
X4071881D01*
X4078440Y2118440D01*
Y2111881D01*
X4071881Y2105321D01*
X4058762D01*
X4052202Y2111881D01*
X4117798Y2105321D02*
X4091560D01*
X4117798Y2131559D01*
Y2138119D01*
X4111238Y2144679D01*
X4098119D01*
X4091560Y2138119D01*
X4605905Y2140285D02*
X4599346Y2146844D01*
X4586227D01*
X4579667Y2140285D01*
Y2133725D01*
X4586227Y2127165D01*
X4599346D01*
X4605905Y2120606D01*
Y2114046D01*
X4599346Y2107487D01*
X4586227D01*
X4579667Y2114046D01*
X4619025Y2107487D02*
X4632144D01*
X4625584D01*
Y2146844D01*
X4619025Y2140285D01*
X4009083Y3690321D02*
Y3729679D01*
X4028762D01*
X4035321Y3723119D01*
Y3710000D01*
X4028762Y3703440D01*
X4009083D01*
X4022202D02*
X4035321Y3690321D01*
X4048441Y3729679D02*
X4074679D01*
X4061560D01*
Y3690321D01*
X4087798D02*
X4100917D01*
X4094358D01*
Y3729679D01*
X4087798Y3723119D01*
X2557363Y3105321D02*
Y3144679D01*
X2577042D01*
X2583601Y3138119D01*
Y3125000D01*
X2577042Y3118440D01*
X2557363D01*
X2570482D02*
X2583601Y3105321D01*
X2596720D02*
X2609839D01*
X2603280D01*
Y3144679D01*
X2596720Y3138119D01*
X2629518Y3105321D02*
X2642637D01*
X2636078D01*
Y3144679D01*
X2629518Y3138119D01*
X2812202Y2675321D02*
Y2714679D01*
X2831881D01*
X2838440Y2708119D01*
Y2695000D01*
X2831881Y2688440D01*
X2812202D01*
X2825321D02*
X2838440Y2675321D01*
X2851560Y2681881D02*
X2858119Y2675321D01*
X2871238D01*
X2877798Y2681881D01*
Y2708119D01*
X2871238Y2714679D01*
X2858119D01*
X2851560Y2708119D01*
Y2701559D01*
X2858119Y2695000D01*
X2877798D01*
X3707202Y3445321D02*
Y3484679D01*
X3726881D01*
X3733440Y3478119D01*
Y3465000D01*
X3726881Y3458440D01*
X3707202D01*
X3720321D02*
X3733440Y3445321D01*
X3746560Y3478119D02*
X3753119Y3484679D01*
X3766238D01*
X3772798Y3478119D01*
Y3471559D01*
X3766238Y3465000D01*
X3772798Y3458440D01*
Y3451881D01*
X3766238Y3445321D01*
X3753119D01*
X3746560Y3451881D01*
Y3458440D01*
X3753119Y3465000D01*
X3746560Y3471559D01*
Y3478119D01*
X3753119Y3465000D02*
X3766238D01*
X3007202Y3635321D02*
Y3674679D01*
X3026881D01*
X3033440Y3668119D01*
Y3655000D01*
X3026881Y3648440D01*
X3007202D01*
X3020321D02*
X3033440Y3635321D01*
X3046560Y3674679D02*
X3072798D01*
Y3668119D01*
X3046560Y3641881D01*
Y3635321D01*
X3007202Y3525321D02*
Y3564679D01*
X3026881D01*
X3033440Y3558119D01*
Y3545000D01*
X3026881Y3538440D01*
X3007202D01*
X3020321D02*
X3033440Y3525321D01*
X3072798Y3564679D02*
X3059679Y3558119D01*
X3046560Y3545000D01*
Y3531881D01*
X3053119Y3525321D01*
X3066238D01*
X3072798Y3531881D01*
Y3538440D01*
X3066238Y3545000D01*
X3046560D01*
X4521000Y2621000D02*
Y2660357D01*
X4540679D01*
X4547238Y2653798D01*
Y2640679D01*
X4540679Y2634119D01*
X4521000D01*
X4534119D02*
X4547238Y2621000D01*
X4586596Y2660357D02*
X4560357D01*
Y2640679D01*
X4573476Y2647238D01*
X4580036D01*
X4586596Y2640679D01*
Y2627560D01*
X4580036Y2621000D01*
X4566917D01*
X4560357Y2627560D01*
X4097202Y2605321D02*
Y2644679D01*
X4116881D01*
X4123440Y2638119D01*
Y2625000D01*
X4116881Y2618440D01*
X4097202D01*
X4110321D02*
X4123440Y2605321D01*
X4156238D02*
Y2644679D01*
X4136560Y2625000D01*
X4162798D01*
X5092202Y3305321D02*
Y3344679D01*
X5111881D01*
X5118440Y3338119D01*
Y3325000D01*
X5111881Y3318440D01*
X5092202D01*
X5105321D02*
X5118440Y3305321D01*
X5131560Y3338119D02*
X5138119Y3344679D01*
X5151238D01*
X5157798Y3338119D01*
Y3331559D01*
X5151238Y3325000D01*
X5144679D01*
X5151238D01*
X5157798Y3318440D01*
Y3311881D01*
X5151238Y3305321D01*
X5138119D01*
X5131560Y3311881D01*
X5087202Y2675321D02*
Y2714679D01*
X5106881D01*
X5113440Y2708119D01*
Y2695000D01*
X5106881Y2688440D01*
X5087202D01*
X5100321D02*
X5113440Y2675321D01*
X5152798D02*
X5126560D01*
X5152798Y2701559D01*
Y2708119D01*
X5146238Y2714679D01*
X5133119D01*
X5126560Y2708119D01*
X3638762Y2100321D02*
Y2139679D01*
X3658441D01*
X3665000Y2133119D01*
Y2120000D01*
X3658441Y2113440D01*
X3638762D01*
X3651881D02*
X3665000Y2100321D01*
X3678119D02*
X3691238D01*
X3684679D01*
Y2139679D01*
X3678119Y2133119D01*
X2827202Y3715321D02*
Y3754679D01*
X2846881D01*
X2853440Y3748119D01*
Y3735000D01*
X2846881Y3728440D01*
X2827202D01*
X2892798Y3715321D02*
X2866560D01*
X2892798Y3741559D01*
Y3748119D01*
X2886238Y3754679D01*
X2873119D01*
X2866560Y3748119D01*
X4441563Y3684679D02*
Y3645321D01*
X4467801D01*
X4507159Y3678119D02*
X4500599Y3684679D01*
X4487480D01*
X4480921Y3678119D01*
Y3671559D01*
X4487480Y3665000D01*
X4500599D01*
X4507159Y3658440D01*
Y3651881D01*
X4500599Y3645321D01*
X4487480D01*
X4480921Y3651881D01*
X4520278Y3645321D02*
X4533397D01*
X4526837D01*
Y3684679D01*
X4520278Y3678119D01*
X2353762Y3214679D02*
Y3175321D01*
Y3188440D01*
X2380000Y3214679D01*
X2360321Y3195000D01*
X2380000Y3175321D01*
X2393119D02*
X2406238D01*
X2399679D01*
Y3214679D01*
X2393119Y3208119D01*
X2620000Y2319679D02*
X2593762D01*
Y2300000D01*
X2606881D01*
X2593762D01*
Y2280321D01*
X2633119D02*
X2646238D01*
X2639679D01*
Y2319679D01*
X2633119Y2313119D01*
X4907202Y3249679D02*
Y3210321D01*
X4926881D01*
X4933440Y3216881D01*
Y3243119D01*
X4926881Y3249679D01*
X4907202D01*
X4946560Y3243119D02*
X4953119Y3249679D01*
X4966238D01*
X4972798Y3243119D01*
Y3236559D01*
X4966238Y3230000D01*
X4959679D01*
X4966238D01*
X4972798Y3223440D01*
Y3216881D01*
X4966238Y3210321D01*
X4953119D01*
X4946560Y3216881D01*
X2642202Y2579679D02*
Y2540321D01*
X2661881D01*
X2668440Y2546881D01*
Y2573119D01*
X2661881Y2579679D01*
X2642202D01*
X2707798Y2540321D02*
X2681560D01*
X2707798Y2566559D01*
Y2573119D01*
X2701238Y2579679D01*
X2688119D01*
X2681560Y2573119D01*
X4888762Y2934679D02*
Y2895321D01*
X4908440D01*
X4915000Y2901881D01*
Y2928119D01*
X4908440Y2934679D01*
X4888762D01*
X4928119Y2895321D02*
X4941238D01*
X4934679D01*
Y2934679D01*
X4928119Y2928119D01*
X3042175Y3258006D02*
X3035616Y3264566D01*
X3022497D01*
X3015937Y3258006D01*
Y3231768D01*
X3022497Y3225208D01*
X3035616D01*
X3042175Y3231768D01*
X3055294Y3225208D02*
X3068413D01*
X3061854D01*
Y3264566D01*
X3055294Y3258006D01*
X3088092D02*
X3094652Y3264566D01*
X3107771D01*
X3114330Y3258006D01*
Y3231768D01*
X3107771Y3225208D01*
X3094652D01*
X3088092Y3231768D01*
Y3258006D01*
X2488440Y3198119D02*
X2481881Y3204679D01*
X2468762D01*
X2462202Y3198119D01*
Y3171881D01*
X2468762Y3165321D01*
X2481881D01*
X2488440Y3171881D01*
X2501560D02*
X2508119Y3165321D01*
X2521238D01*
X2527798Y3171881D01*
Y3198119D01*
X2521238Y3204679D01*
X2508119D01*
X2501560Y3198119D01*
Y3191559D01*
X2508119Y3185000D01*
X2527798D01*
X2458440Y2834655D02*
X2451881Y2841215D01*
X2438762D01*
X2432202Y2834655D01*
Y2808417D01*
X2438762Y2801857D01*
X2451881D01*
X2458440Y2808417D01*
X2471560Y2834655D02*
X2478119Y2841215D01*
X2491238D01*
X2497798Y2834655D01*
Y2828095D01*
X2491238Y2821536D01*
X2497798Y2814976D01*
Y2808417D01*
X2491238Y2801857D01*
X2478119D01*
X2471560Y2808417D01*
Y2814976D01*
X2478119Y2821536D01*
X2471560Y2828095D01*
Y2834655D01*
X2478119Y2821536D02*
X2491238D01*
X2973440Y2618119D02*
X2966881Y2624679D01*
X2953762D01*
X2947202Y2618119D01*
Y2591881D01*
X2953762Y2585321D01*
X2966881D01*
X2973440Y2591881D01*
X2986560Y2624679D02*
X3012798D01*
Y2618119D01*
X2986560Y2591881D01*
Y2585321D01*
X3713440Y3723119D02*
X3706881Y3729679D01*
X3693762D01*
X3687202Y3723119D01*
Y3696881D01*
X3693762Y3690321D01*
X3706881D01*
X3713440Y3696881D01*
X3752798Y3729679D02*
X3739679Y3723119D01*
X3726560Y3710000D01*
Y3696881D01*
X3733119Y3690321D01*
X3746238D01*
X3752798Y3696881D01*
Y3703440D01*
X3746238Y3710000D01*
X3726560D01*
X3538440Y3188119D02*
X3531881Y3194679D01*
X3518762D01*
X3512202Y3188119D01*
Y3161881D01*
X3518762Y3155321D01*
X3531881D01*
X3538440Y3161881D01*
X3577798Y3194679D02*
X3551560D01*
Y3175000D01*
X3564679Y3181559D01*
X3571238D01*
X3577798Y3175000D01*
Y3161881D01*
X3571238Y3155321D01*
X3558119D01*
X3551560Y3161881D01*
X4103440Y3203119D02*
X4096881Y3209679D01*
X4083762D01*
X4077202Y3203119D01*
Y3176881D01*
X4083762Y3170321D01*
X4096881D01*
X4103440Y3176881D01*
X4136238Y3170321D02*
Y3209679D01*
X4116560Y3190000D01*
X4142798D01*
X3888440Y2228119D02*
X3881881Y2234679D01*
X3868762D01*
X3862202Y2228119D01*
Y2201881D01*
X3868762Y2195321D01*
X3881881D01*
X3888440Y2201881D01*
X3927798Y2195321D02*
X3901560D01*
X3927798Y2221559D01*
Y2228119D01*
X3921238Y2234679D01*
X3908119D01*
X3901560Y2228119D01*
X3562238Y2625798D02*
X3555679Y2632357D01*
X3542560D01*
X3536000Y2625798D01*
Y2599560D01*
X3542560Y2593000D01*
X3555679D01*
X3562238Y2599560D01*
X3575357Y2593000D02*
X3588477D01*
X3581917D01*
Y2632357D01*
X3575357Y2625798D01*
X3184083Y3145321D02*
Y3171559D01*
X3197202Y3184679D01*
X3210321Y3171559D01*
Y3145321D01*
Y3165000D01*
X3184083D01*
X3223441Y3145321D02*
Y3184679D01*
X3236560Y3171559D01*
X3249679Y3184679D01*
Y3145321D01*
X3262798D02*
X3275917D01*
X3269358D01*
Y3184679D01*
X3262798Y3178119D01*
D15*
X4542874Y2407323D02*
G03*
X4542874Y2407323I-4921J0D01*
G01*
X4007874Y2405157D02*
G03*
X4007874Y2405157I-4921J0D01*
G01*
D16*
X4311238Y3310000D02*
X4285000D01*
X4311238Y3336238D01*
Y3342798D01*
X4304679Y3349357D01*
X4291560D01*
X4285000Y3342798D01*
X4101238Y3339357D02*
X4088119Y3332798D01*
X4075000Y3319679D01*
Y3306560D01*
X4081560Y3300000D01*
X4094679D01*
X4101238Y3306560D01*
Y3313119D01*
X4094679Y3319679D01*
X4075000D01*
X4101238Y3634357D02*
X4075000D01*
Y3614679D01*
X4088119Y3621238D01*
X4094679D01*
X4101238Y3614679D01*
Y3601560D01*
X4094679Y3595000D01*
X4081560D01*
X4075000Y3601560D01*
X4285000Y3595000D02*
X4298119D01*
X4291560D01*
Y3634357D01*
X4285000Y3627798D01*
M02*
