G04*
G04 #@! TF.GenerationSoftware,Altium Limited,Altium Designer,24.9.1 (31)*
G04*
G04 Layer_Color=16711935*
%FSLAX26Y26*%
%MOIN*%
G70*
G04*
G04 #@! TF.SameCoordinates,85691A34-BE1F-424B-AAFF-A29D0EFE2AC2*
G04*
G04*
G04 #@! TF.FilePolarity,Positive*
G04*
G01*
G75*
%ADD44C,0.039370*%
D44*
X5130000Y3870000D02*
X5205000Y3795000D01*
X1750000Y3240000D02*
X2325000D01*
X5205000Y2095000D02*
Y3795000D01*
X2500000Y3275000D02*
Y3755000D01*
X2330000Y2760000D02*
X2425000D01*
X2470000D02*
X2505000Y2725000D01*
X2500000Y3755000D02*
X2540000Y3795000D01*
X2425000Y2760000D02*
X2470000D01*
X2505000Y2140000D02*
Y2725000D01*
X5170000Y2060000D02*
X5205000Y2095000D01*
X2325000Y3240000D02*
X2420000D01*
X2465000D02*
X2500000Y3275000D01*
X2505000Y2130000D02*
Y2140000D01*
X2420000Y3240000D02*
X2465000D01*
X1750000Y2760000D02*
Y3240000D01*
X2505000Y2130000D02*
X2540000Y2095000D01*
X2615000Y3870000D02*
X5130000D01*
X1750000Y2760000D02*
X2330000D01*
X2540000Y2095000D02*
X2575000Y2060000D01*
X5170000D01*
X2540000Y3795000D02*
X2615000Y3870000D01*
M02*
