G04*
G04 #@! TF.GenerationSoftware,Altium Limited,Altium Designer,24.9.1 (31)*
G04*
G04 Layer_Color=8388736*
%FSLAX26Y26*%
%MOIN*%
G70*
G04*
G04 #@! TF.SameCoordinates,85691A34-BE1F-424B-AAFF-A29D0EFE2AC2*
G04*
G04*
G04 #@! TF.FilePolarity,Negative*
G04*
G01*
G75*
%ADD19R,0.013969X0.065153*%
G04:AMPARAMS|DCode=25|XSize=47.37mil|YSize=362.331mil|CornerRadius=4.787mil|HoleSize=0mil|Usage=FLASHONLY|Rotation=90.000|XOffset=0mil|YOffset=0mil|HoleType=Round|Shape=RoundedRectangle|*
%AMROUNDEDRECTD25*
21,1,0.047370,0.352756,0,0,90.0*
21,1,0.037795,0.362331,0,0,90.0*
1,1,0.009575,0.176378,0.018898*
1,1,0.009575,0.176378,-0.018898*
1,1,0.009575,-0.176378,-0.018898*
1,1,0.009575,-0.176378,0.018898*
%
%ADD25ROUNDEDRECTD25*%
G04:AMPARAMS|DCode=26|XSize=67.055mil|YSize=441.071mil|CornerRadius=5.181mil|HoleSize=0mil|Usage=FLASHONLY|Rotation=90.000|XOffset=0mil|YOffset=0mil|HoleType=Round|Shape=RoundedRectangle|*
%AMROUNDEDRECTD26*
21,1,0.067055,0.430709,0,0,90.0*
21,1,0.056693,0.441071,0,0,90.0*
1,1,0.010362,0.215354,0.028346*
1,1,0.010362,0.215354,-0.028346*
1,1,0.010362,-0.215354,-0.028346*
1,1,0.010362,-0.215354,0.028346*
%
%ADD26ROUNDEDRECTD26*%
G04:AMPARAMS|DCode=27|XSize=45.008mil|YSize=48.157mil|CornerRadius=7.701mil|HoleSize=0mil|Usage=FLASHONLY|Rotation=0.000|XOffset=0mil|YOffset=0mil|HoleType=Round|Shape=RoundedRectangle|*
%AMROUNDEDRECTD27*
21,1,0.045008,0.032756,0,0,0.0*
21,1,0.029606,0.048157,0,0,0.0*
1,1,0.015402,0.014803,-0.016378*
1,1,0.015402,-0.014803,-0.016378*
1,1,0.015402,-0.014803,0.016378*
1,1,0.015402,0.014803,0.016378*
%
%ADD27ROUNDEDRECTD27*%
%ADD28R,0.078079X0.132016*%
%ADD29R,0.047370X0.051307*%
%ADD30R,0.035559X0.035559*%
%ADD31R,0.031622X0.031622*%
%ADD32C,0.078866*%
%ADD33C,0.078740*%
G04:AMPARAMS|DCode=34|XSize=141.732mil|YSize=70.866mil|CornerRadius=17.716mil|HoleSize=0mil|Usage=FLASHONLY|Rotation=90.000|XOffset=0mil|YOffset=0mil|HoleType=Round|Shape=RoundedRectangle|*
%AMROUNDEDRECTD34*
21,1,0.141732,0.035433,0,0,90.0*
21,1,0.106299,0.070866,0,0,90.0*
1,1,0.035433,0.017717,0.053150*
1,1,0.035433,0.017717,-0.053150*
1,1,0.035433,-0.017717,-0.053150*
1,1,0.035433,-0.017717,0.053150*
%
%ADD34ROUNDEDRECTD34*%
%ADD35C,0.086740*%
%ADD36R,0.086740X0.086740*%
%ADD37R,0.067055X0.067055*%
%ADD38C,0.067055*%
%ADD39R,0.086740X0.086740*%
%ADD40R,0.080835X0.080835*%
%ADD41C,0.058000*%
D19*
X2917500Y2898924D02*
D03*
X2892500D02*
D03*
X2867500D02*
D03*
X2842500D02*
D03*
X2817500D02*
D03*
X2792500D02*
D03*
X2767500D02*
D03*
X2742500D02*
D03*
Y3121076D02*
D03*
X2767500D02*
D03*
X2792500D02*
D03*
X2817500D02*
D03*
X2842500D02*
D03*
X2867500D02*
D03*
X2892500D02*
D03*
X2917500D02*
D03*
D25*
X2050000Y3039370D02*
D03*
Y2960630D02*
D03*
D26*
X2015000Y2862204D02*
D03*
Y3137796D02*
D03*
D27*
X2888898Y3550000D02*
D03*
X2951102D02*
D03*
X2563898Y3045000D02*
D03*
X2626102D02*
D03*
X2888898Y3650000D02*
D03*
X2951102D02*
D03*
X2563898Y2965000D02*
D03*
X2626102D02*
D03*
D28*
X2827952Y2425000D02*
D03*
X2622048D02*
D03*
D29*
X2460000Y3046536D02*
D03*
Y3113464D02*
D03*
Y2893072D02*
D03*
Y2960000D02*
D03*
D30*
X2818504Y2765000D02*
D03*
X2881496D02*
D03*
D31*
X2619448Y2640000D02*
D03*
X2710000D02*
D03*
D32*
X3325000Y2585000D02*
D03*
Y2385000D02*
D03*
X5115000Y2835000D02*
D03*
Y3235000D02*
D03*
X5075000Y2220000D02*
D03*
Y2620000D02*
D03*
X4040000Y2540000D02*
D03*
X4440000D02*
D03*
X3900000Y3675000D02*
D03*
Y3575000D02*
D03*
X3065000Y2910000D02*
D03*
Y3110000D02*
D03*
X3255000Y3510000D02*
D03*
X3655000D02*
D03*
X3770000Y3250000D02*
D03*
X3970000D02*
D03*
X3895000Y2535000D02*
D03*
Y2335000D02*
D03*
X3575000Y3695000D02*
D03*
X3375000D02*
D03*
X3280000Y2205000D02*
D03*
X3680000D02*
D03*
X4830000Y3135000D02*
D03*
Y3035000D02*
D03*
X4820000Y2815000D02*
D03*
Y2715000D02*
D03*
X4950000Y2540000D02*
D03*
X4550000D02*
D03*
D33*
X4545000Y3425000D02*
D03*
X4702480D02*
D03*
D34*
X3270000Y2755000D02*
D03*
X3370000D02*
D03*
X3470000D02*
D03*
X3570000D02*
D03*
X3670000D02*
D03*
X3770000D02*
D03*
X3870000D02*
D03*
X3970000D02*
D03*
X4070000D02*
D03*
X4170000D02*
D03*
X4270000D02*
D03*
X4370000D02*
D03*
X4470000D02*
D03*
X4570000D02*
D03*
Y3055000D02*
D03*
X4470000D02*
D03*
X4370000D02*
D03*
X4270000D02*
D03*
X4170000D02*
D03*
X4070000D02*
D03*
X3970000D02*
D03*
X3870000D02*
D03*
X3770000D02*
D03*
X3670000D02*
D03*
X3570000D02*
D03*
X3470000D02*
D03*
X3370000D02*
D03*
X3270000D02*
D03*
D35*
X2740000Y3230000D02*
D03*
Y3330000D02*
D03*
Y3430000D02*
D03*
Y3530000D02*
D03*
Y3630000D02*
D03*
X4090000Y3520000D02*
D03*
X4190000Y3420000D02*
D03*
Y3520000D02*
D03*
X4290000Y3420000D02*
D03*
X4090000D02*
D03*
X4625000Y2230000D02*
D03*
X4880906D02*
D03*
Y2407166D02*
D03*
X4090000Y2227834D02*
D03*
X4345906D02*
D03*
Y2405000D02*
D03*
D36*
X2740000Y3730000D02*
D03*
D37*
X3365000Y3246576D02*
D03*
X3070000Y2390788D02*
D03*
X3650000Y2390000D02*
D03*
D38*
X3365000Y3345000D02*
D03*
X3070000Y2489212D02*
D03*
X3650000Y2488426D02*
D03*
D39*
X4290000Y3520000D02*
D03*
D40*
X4625000Y2407166D02*
D03*
X4090000Y2405000D02*
D03*
D41*
X2840000Y3230000D02*
D03*
X2710000Y2735000D02*
D03*
M02*
