G04*
G04 #@! TF.GenerationSoftware,Altium Limited,Altium Designer,24.9.1 (31)*
G04*
G04 Layer_Color=255*
%FSLAX26Y26*%
%MOIN*%
G70*
G04*
G04 #@! TF.SameCoordinates,85691A34-BE1F-424B-AAFF-A29D0EFE2AC2*
G04*
G04*
G04 #@! TF.FilePolarity,Positive*
G04*
G01*
G75*
G04:AMPARAMS|DCode=17|XSize=39.37mil|YSize=354.331mil|CornerRadius=0.787mil|HoleSize=0mil|Usage=FLASHONLY|Rotation=90.000|XOffset=0mil|YOffset=0mil|HoleType=Round|Shape=RoundedRectangle|*
%AMROUNDEDRECTD17*
21,1,0.039370,0.352756,0,0,90.0*
21,1,0.037795,0.354331,0,0,90.0*
1,1,0.001575,0.176378,0.018898*
1,1,0.001575,0.176378,-0.018898*
1,1,0.001575,-0.176378,-0.018898*
1,1,0.001575,-0.176378,0.018898*
%
%ADD17ROUNDEDRECTD17*%
G04:AMPARAMS|DCode=18|XSize=59.055mil|YSize=433.071mil|CornerRadius=1.181mil|HoleSize=0mil|Usage=FLASHONLY|Rotation=90.000|XOffset=0mil|YOffset=0mil|HoleType=Round|Shape=RoundedRectangle|*
%AMROUNDEDRECTD18*
21,1,0.059055,0.430709,0,0,90.0*
21,1,0.056693,0.433071,0,0,90.0*
1,1,0.002362,0.215354,0.028346*
1,1,0.002362,0.215354,-0.028346*
1,1,0.002362,-0.215354,-0.028346*
1,1,0.002362,-0.215354,0.028346*
%
%ADD18ROUNDEDRECTD18*%
%ADD19R,0.013969X0.065153*%
G04:AMPARAMS|DCode=20|XSize=37.008mil|YSize=40.157mil|CornerRadius=3.701mil|HoleSize=0mil|Usage=FLASHONLY|Rotation=0.000|XOffset=0mil|YOffset=0mil|HoleType=Round|Shape=RoundedRectangle|*
%AMROUNDEDRECTD20*
21,1,0.037008,0.032756,0,0,0.0*
21,1,0.029606,0.040157,0,0,0.0*
1,1,0.007402,0.014803,-0.016378*
1,1,0.007402,-0.014803,-0.016378*
1,1,0.007402,-0.014803,0.016378*
1,1,0.007402,0.014803,0.016378*
%
%ADD20ROUNDEDRECTD20*%
%ADD21R,0.070079X0.124016*%
%ADD22R,0.039370X0.043307*%
%ADD23R,0.027559X0.027559*%
%ADD33C,0.078740*%
G04:AMPARAMS|DCode=34|XSize=141.732mil|YSize=70.866mil|CornerRadius=17.716mil|HoleSize=0mil|Usage=FLASHONLY|Rotation=90.000|XOffset=0mil|YOffset=0mil|HoleType=Round|Shape=RoundedRectangle|*
%AMROUNDEDRECTD34*
21,1,0.141732,0.035433,0,0,90.0*
21,1,0.106299,0.070866,0,0,90.0*
1,1,0.035433,0.017717,0.053150*
1,1,0.035433,0.017717,-0.053150*
1,1,0.035433,-0.017717,-0.053150*
1,1,0.035433,-0.017717,0.053150*
%
%ADD34ROUNDEDRECTD34*%
%ADD42R,0.023622X0.023622*%
%ADD46C,0.070866*%
%ADD47R,0.078740X0.078740*%
%ADD48R,0.059055X0.059055*%
%ADD49C,0.059055*%
%ADD50R,0.078740X0.078740*%
%ADD51R,0.072835X0.072835*%
D17*
X2050000Y3039370D02*
D03*
Y2960630D02*
D03*
D18*
X2015000Y2862204D02*
D03*
Y3137796D02*
D03*
D19*
X2917500Y2898924D02*
D03*
X2892500D02*
D03*
X2867500D02*
D03*
X2842500D02*
D03*
X2817500D02*
D03*
X2792500D02*
D03*
X2767500D02*
D03*
X2742500D02*
D03*
Y3121076D02*
D03*
X2767500D02*
D03*
X2792500D02*
D03*
X2817500D02*
D03*
X2842500D02*
D03*
X2867500D02*
D03*
X2892500D02*
D03*
X2917500D02*
D03*
D20*
X2888898Y3550000D02*
D03*
X2951102D02*
D03*
X2563898Y3045000D02*
D03*
X2626102D02*
D03*
X2888898Y3650000D02*
D03*
X2951102D02*
D03*
X2563898Y2965000D02*
D03*
X2626102D02*
D03*
D21*
X2827952Y2425000D02*
D03*
X2622048D02*
D03*
D22*
X2460000Y3046536D02*
D03*
Y3113464D02*
D03*
Y2893072D02*
D03*
Y2960000D02*
D03*
D23*
X2818504Y2765000D02*
D03*
X2881496D02*
D03*
D33*
X4545000Y3425000D02*
D03*
X4702480D02*
D03*
X2740000Y3230000D02*
D03*
Y3330000D02*
D03*
Y3430000D02*
D03*
Y3530000D02*
D03*
Y3630000D02*
D03*
X4090000Y3520000D02*
D03*
X4190000Y3420000D02*
D03*
Y3520000D02*
D03*
X4290000Y3420000D02*
D03*
X4090000D02*
D03*
X4625000Y2230000D02*
D03*
X4880906D02*
D03*
Y2407166D02*
D03*
X4090000Y2227834D02*
D03*
X4345906D02*
D03*
Y2405000D02*
D03*
D34*
X3270000Y2755000D02*
D03*
X3370000D02*
D03*
X3470000D02*
D03*
X3570000D02*
D03*
X3670000D02*
D03*
X3770000D02*
D03*
X3870000D02*
D03*
X3970000D02*
D03*
X4070000D02*
D03*
X4170000D02*
D03*
X4270000D02*
D03*
X4370000D02*
D03*
X4470000D02*
D03*
X4570000D02*
D03*
Y3055000D02*
D03*
X4470000D02*
D03*
X4370000D02*
D03*
X4270000D02*
D03*
X4170000D02*
D03*
X4070000D02*
D03*
X3970000D02*
D03*
X3870000D02*
D03*
X3770000D02*
D03*
X3670000D02*
D03*
X3570000D02*
D03*
X3470000D02*
D03*
X3370000D02*
D03*
X3270000D02*
D03*
D42*
X2619448Y2640000D02*
D03*
X2710000D02*
D03*
D46*
X3325000Y2585000D02*
D03*
Y2385000D02*
D03*
X5115000Y2835000D02*
D03*
Y3235000D02*
D03*
X5075000Y2220000D02*
D03*
Y2620000D02*
D03*
X4040000Y2540000D02*
D03*
X4440000D02*
D03*
X3900000Y3675000D02*
D03*
Y3575000D02*
D03*
X3065000Y2910000D02*
D03*
Y3110000D02*
D03*
X3255000Y3510000D02*
D03*
X3655000D02*
D03*
X3770000Y3250000D02*
D03*
X3970000D02*
D03*
X3895000Y2535000D02*
D03*
Y2335000D02*
D03*
X3575000Y3695000D02*
D03*
X3375000D02*
D03*
X3280000Y2205000D02*
D03*
X3680000D02*
D03*
X4830000Y3135000D02*
D03*
Y3035000D02*
D03*
X4820000Y2815000D02*
D03*
Y2715000D02*
D03*
X4950000Y2540000D02*
D03*
X4550000D02*
D03*
D47*
X2740000Y3730000D02*
D03*
D48*
X3365000Y3246576D02*
D03*
X3070000Y2390788D02*
D03*
X3650000Y2390000D02*
D03*
D49*
X3365000Y3345000D02*
D03*
X3070000Y2489212D02*
D03*
X3650000Y2488426D02*
D03*
D50*
X4290000Y3520000D02*
D03*
D51*
X4625000Y2407166D02*
D03*
X4090000Y2405000D02*
D03*
M02*
