G04*
G04 #@! TF.GenerationSoftware,Altium Limited,Altium Designer,24.9.1 (31)*
G04*
G04 Layer_Color=2752767*
%FSLAX26Y26*%
%MOIN*%
G70*
G04*
G04 #@! TF.SameCoordinates,85691A34-BE1F-424B-AAFF-A29D0EFE2AC2*
G04*
G04*
G04 #@! TF.FilePolarity,Positive*
G04*
G01*
G75*
%ADD12C,0.005000*%
%ADD58C,0.006667*%
D12*
X3305000Y2565000D02*
Y2605000D01*
X3345000D01*
Y2565000D01*
X3305000D01*
Y2365000D02*
Y2405000D01*
X3345000D01*
Y2365000D01*
X3305000D01*
X4525000Y3405000D02*
X4535000Y3425000D01*
X4525000Y3445000D01*
X4545000Y3435000D01*
X4565000Y3445000D01*
X4555000Y3425000D01*
X4565000Y3405000D01*
X4545000Y3415000D01*
X4525000Y3405000D01*
X4682480D02*
X4692480Y3425000D01*
X4682480Y3445000D01*
X4702480Y3435000D01*
X4722480Y3445000D01*
X4712480Y3425000D01*
X4722480Y3405000D01*
X4702480Y3415000D01*
X4682480Y3405000D01*
X3880000Y3655000D02*
Y3695000D01*
X3920000D01*
Y3655000D01*
X3880000D01*
Y3555000D02*
Y3595000D01*
X3920000D01*
Y3555000D01*
X3880000D01*
X2740000Y3210000D02*
X2750000Y3220000D01*
X2760000D01*
X2750000Y3230000D01*
X2760000Y3240000D01*
X2750000D01*
X2740000Y3250000D01*
X2730000Y3240000D01*
X2720000D01*
X2730000Y3230000D01*
X2720000Y3220000D01*
X2730000D01*
X2740000Y3210000D01*
Y3310000D02*
X2750000Y3320000D01*
X2760000D01*
X2750000Y3330000D01*
X2760000Y3340000D01*
X2750000D01*
X2740000Y3350000D01*
X2730000Y3340000D01*
X2720000D01*
X2730000Y3330000D01*
X2720000Y3320000D01*
X2730000D01*
X2740000Y3310000D01*
Y3410000D02*
X2750000Y3420000D01*
X2760000D01*
X2750000Y3430000D01*
X2760000Y3440000D01*
X2750000D01*
X2740000Y3450000D01*
X2730000Y3440000D01*
X2720000D01*
X2730000Y3430000D01*
X2720000Y3420000D01*
X2730000D01*
X2740000Y3410000D01*
Y3510000D02*
X2750000Y3520000D01*
X2760000D01*
X2750000Y3530000D01*
X2760000Y3540000D01*
X2750000D01*
X2740000Y3550000D01*
X2730000Y3540000D01*
X2720000D01*
X2730000Y3530000D01*
X2720000Y3520000D01*
X2730000D01*
X2740000Y3510000D01*
Y3610000D02*
X2750000Y3620000D01*
X2760000D01*
X2750000Y3630000D01*
X2760000Y3640000D01*
X2750000D01*
X2740000Y3650000D01*
X2730000Y3640000D01*
X2720000D01*
X2730000Y3630000D01*
X2720000Y3620000D01*
X2730000D01*
X2740000Y3610000D01*
Y3710000D02*
X2750000Y3720000D01*
X2760000D01*
X2750000Y3730000D01*
X2760000Y3740000D01*
X2750000D01*
X2740000Y3750000D01*
X2730000Y3740000D01*
X2720000D01*
X2730000Y3730000D01*
X2720000Y3720000D01*
X2730000D01*
X2740000Y3710000D01*
X3045000Y2890000D02*
Y2930000D01*
X3085000D01*
Y2890000D01*
X3045000D01*
Y3090000D02*
Y3130000D01*
X3085000D01*
Y3090000D01*
X3045000D01*
X3750000Y3230000D02*
Y3270000D01*
X3790000D01*
Y3230000D01*
X3750000D01*
X3950000D02*
Y3270000D01*
X3990000D01*
Y3230000D01*
X3950000D01*
X3345000Y3226576D02*
Y3266576D01*
X3385000D01*
Y3226576D01*
X3345000D01*
Y3325000D02*
Y3365000D01*
X3385000D01*
Y3325000D01*
X3345000D01*
X4090000Y3500000D02*
X4100000Y3510000D01*
X4110000D01*
X4100000Y3520000D01*
X4110000Y3530000D01*
X4100000D01*
X4090000Y3540000D01*
X4080000Y3530000D01*
X4070000D01*
X4080000Y3520000D01*
X4070000Y3510000D01*
X4080000D01*
X4090000Y3500000D01*
X4190000Y3400000D02*
X4200000Y3410000D01*
X4210000D01*
X4200000Y3420000D01*
X4210000Y3430000D01*
X4200000D01*
X4190000Y3440000D01*
X4180000Y3430000D01*
X4170000D01*
X4180000Y3420000D01*
X4170000Y3410000D01*
X4180000D01*
X4190000Y3400000D01*
Y3500000D02*
X4200000Y3510000D01*
X4210000D01*
X4200000Y3520000D01*
X4210000Y3530000D01*
X4200000D01*
X4190000Y3540000D01*
X4180000Y3530000D01*
X4170000D01*
X4180000Y3520000D01*
X4170000Y3510000D01*
X4180000D01*
X4190000Y3500000D01*
X4290000D02*
X4300000Y3510000D01*
X4310000D01*
X4300000Y3520000D01*
X4310000Y3530000D01*
X4300000D01*
X4290000Y3540000D01*
X4280000Y3530000D01*
X4270000D01*
X4280000Y3520000D01*
X4270000Y3510000D01*
X4280000D01*
X4290000Y3500000D01*
Y3400000D02*
X4300000Y3410000D01*
X4310000D01*
X4300000Y3420000D01*
X4310000Y3430000D01*
X4300000D01*
X4290000Y3440000D01*
X4280000Y3430000D01*
X4270000D01*
X4280000Y3420000D01*
X4270000Y3410000D01*
X4280000D01*
X4290000Y3400000D01*
X4090000D02*
X4100000Y3410000D01*
X4110000D01*
X4100000Y3420000D01*
X4110000Y3430000D01*
X4100000D01*
X4090000Y3440000D01*
X4080000Y3430000D01*
X4070000D01*
X4080000Y3420000D01*
X4070000Y3410000D01*
X4080000D01*
X4090000Y3400000D01*
X3875000Y2515000D02*
Y2555000D01*
X3915000D01*
Y2515000D01*
X3875000D01*
Y2315000D02*
Y2355000D01*
X3915000D01*
Y2315000D01*
X3875000D01*
X3050000Y2469212D02*
Y2509212D01*
X3090000D01*
Y2469212D01*
X3050000D01*
Y2370788D02*
Y2410788D01*
X3090000D01*
Y2370788D01*
X3050000D01*
X3555000Y3675000D02*
Y3715000D01*
X3595000D01*
Y3675000D01*
X3555000D01*
X3355000D02*
Y3715000D01*
X3395000D01*
Y3675000D01*
X3355000D01*
X4810000Y3115000D02*
X4820000Y3135000D01*
X4810000Y3155000D01*
X4830000Y3145000D01*
X4850000Y3155000D01*
X4840000Y3135000D01*
X4850000Y3115000D01*
X4830000Y3125000D01*
X4810000Y3115000D01*
Y3015000D02*
X4820000Y3035000D01*
X4810000Y3055000D01*
X4830000Y3045000D01*
X4850000Y3055000D01*
X4840000Y3035000D01*
X4850000Y3015000D01*
X4830000Y3025000D01*
X4810000Y3015000D01*
X4800000Y2795000D02*
X4810000Y2815000D01*
X4800000Y2835000D01*
X4820000Y2825000D01*
X4840000Y2835000D01*
X4830000Y2815000D01*
X4840000Y2795000D01*
X4820000Y2805000D01*
X4800000Y2795000D01*
Y2695000D02*
X4810000Y2715000D01*
X4800000Y2735000D01*
X4820000Y2725000D01*
X4840000Y2735000D01*
X4830000Y2715000D01*
X4840000Y2695000D01*
X4820000Y2705000D01*
X4800000Y2695000D01*
X4605000Y2210000D02*
X4615000Y2230000D01*
X4605000Y2250000D01*
X4625000Y2240000D01*
X4645000Y2250000D01*
X4635000Y2230000D01*
X4645000Y2210000D01*
X4625000Y2220000D01*
X4605000Y2210000D01*
X4860906D02*
X4870906Y2230000D01*
X4860906Y2250000D01*
X4880906Y2240000D01*
X4900906Y2250000D01*
X4890906Y2230000D01*
X4900906Y2210000D01*
X4880906Y2220000D01*
X4860906Y2210000D01*
Y2387166D02*
X4870906Y2407166D01*
X4860906Y2427166D01*
X4880906Y2417166D01*
X4900906Y2427166D01*
X4890906Y2407166D01*
X4900906Y2387166D01*
X4880906Y2397166D01*
X4860906Y2387166D01*
X4605000D02*
X4615000Y2407166D01*
X4605000Y2427166D01*
X4625000Y2417166D01*
X4645000Y2427166D01*
X4635000Y2407166D01*
X4645000Y2387166D01*
X4625000Y2397166D01*
X4605000Y2387166D01*
X4070000Y2207834D02*
X4080000Y2227834D01*
X4070000Y2247834D01*
X4090000Y2237834D01*
X4110000Y2247834D01*
X4100000Y2227834D01*
X4110000Y2207834D01*
X4090000Y2217834D01*
X4070000Y2207834D01*
X4325906D02*
X4335906Y2227834D01*
X4325906Y2247834D01*
X4345906Y2237834D01*
X4365906Y2247834D01*
X4355906Y2227834D01*
X4365906Y2207834D01*
X4345906Y2217834D01*
X4325906Y2207834D01*
Y2385000D02*
X4335906Y2405000D01*
X4325906Y2425000D01*
X4345906Y2415000D01*
X4365906Y2425000D01*
X4355906Y2405000D01*
X4365906Y2385000D01*
X4345906Y2395000D01*
X4325906Y2385000D01*
X4070000D02*
X4080000Y2405000D01*
X4070000Y2425000D01*
X4090000Y2415000D01*
X4110000Y2425000D01*
X4100000Y2405000D01*
X4110000Y2385000D01*
X4090000Y2395000D01*
X4070000Y2385000D01*
X3630000Y2370000D02*
Y2410000D01*
X3670000D01*
Y2370000D01*
X3630000D01*
Y2468426D02*
Y2508426D01*
X3670000D01*
Y2468426D01*
X3630000D01*
X2840000Y3210000D02*
X2820000Y3250000D01*
X2860000D01*
X2840000Y3210000D01*
X2710000Y2715000D02*
X2690000Y2755000D01*
X2730000D01*
X2710000Y2715000D01*
D58*
X5135000Y2835000D02*
G03*
X5135000Y2835000I-20000J0D01*
G01*
Y3235000D02*
G03*
X5135000Y3235000I-20000J0D01*
G01*
X5095000Y2220000D02*
G03*
X5095000Y2220000I-20000J0D01*
G01*
Y2620000D02*
G03*
X5095000Y2620000I-20000J0D01*
G01*
X4060000Y2540000D02*
G03*
X4060000Y2540000I-20000J0D01*
G01*
X4460000D02*
G03*
X4460000Y2540000I-20000J0D01*
G01*
X3290000Y2755000D02*
G03*
X3290000Y2755000I-20000J0D01*
G01*
X3390000D02*
G03*
X3390000Y2755000I-20000J0D01*
G01*
X3490000D02*
G03*
X3490000Y2755000I-20000J0D01*
G01*
X3590000D02*
G03*
X3590000Y2755000I-20000J0D01*
G01*
X3690000D02*
G03*
X3690000Y2755000I-20000J0D01*
G01*
X3790000D02*
G03*
X3790000Y2755000I-20000J0D01*
G01*
X3890000D02*
G03*
X3890000Y2755000I-20000J0D01*
G01*
X3990000D02*
G03*
X3990000Y2755000I-20000J0D01*
G01*
X4090000D02*
G03*
X4090000Y2755000I-20000J0D01*
G01*
X4190000D02*
G03*
X4190000Y2755000I-20000J0D01*
G01*
X4290000D02*
G03*
X4290000Y2755000I-20000J0D01*
G01*
X4390000D02*
G03*
X4390000Y2755000I-20000J0D01*
G01*
X4490000D02*
G03*
X4490000Y2755000I-20000J0D01*
G01*
X4590000D02*
G03*
X4590000Y2755000I-20000J0D01*
G01*
Y3055000D02*
G03*
X4590000Y3055000I-20000J0D01*
G01*
X4490000D02*
G03*
X4490000Y3055000I-20000J0D01*
G01*
X4390000D02*
G03*
X4390000Y3055000I-20000J0D01*
G01*
X4290000D02*
G03*
X4290000Y3055000I-20000J0D01*
G01*
X4190000D02*
G03*
X4190000Y3055000I-20000J0D01*
G01*
X4090000D02*
G03*
X4090000Y3055000I-20000J0D01*
G01*
X3990000D02*
G03*
X3990000Y3055000I-20000J0D01*
G01*
X3890000D02*
G03*
X3890000Y3055000I-20000J0D01*
G01*
X3790000D02*
G03*
X3790000Y3055000I-20000J0D01*
G01*
X3690000D02*
G03*
X3690000Y3055000I-20000J0D01*
G01*
X3590000D02*
G03*
X3590000Y3055000I-20000J0D01*
G01*
X3490000D02*
G03*
X3490000Y3055000I-20000J0D01*
G01*
X3390000D02*
G03*
X3390000Y3055000I-20000J0D01*
G01*
X3290000D02*
G03*
X3290000Y3055000I-20000J0D01*
G01*
X3275000Y3510000D02*
G03*
X3275000Y3510000I-20000J0D01*
G01*
X3675000D02*
G03*
X3675000Y3510000I-20000J0D01*
G01*
X3300000Y2205000D02*
G03*
X3300000Y2205000I-20000J0D01*
G01*
X3700000D02*
G03*
X3700000Y2205000I-20000J0D01*
G01*
X4970000Y2540000D02*
G03*
X4970000Y2540000I-20000J0D01*
G01*
X4570000D02*
G03*
X4570000Y2540000I-20000J0D01*
G01*
M02*
