G04*
G04 #@! TF.GenerationSoftware,Altium Limited,Altium Designer,24.9.1 (31)*
G04*
G04 Layer_Color=32768*
%FSLAX26Y26*%
%MOIN*%
G70*
G04*
G04 #@! TF.SameCoordinates,85691A34-BE1F-424B-AAFF-A29D0EFE2AC2*
G04*
G04*
G04 #@! TF.FilePolarity,Positive*
G04*
G01*
G75*
%ADD10C,0.006000*%
%ADD12C,0.005000*%
%ADD56C,0.001968*%
%ADD57C,0.002000*%
G36*
X2715516Y3108500D02*
Y3173653D01*
X2944484D01*
Y3108500D01*
X2948500D01*
Y2911500D01*
X2944484D01*
Y2846347D01*
X2715516D01*
Y2911500D01*
X2711500D01*
Y3108500D01*
X2715516D01*
D02*
G37*
G36*
X4610000Y3062500D02*
Y3095000D01*
X3230000D01*
Y3062500D01*
X3185000D01*
Y2747500D01*
X3230000D01*
Y2715000D01*
X4610000D01*
Y2747500D01*
X4655000D01*
Y3062500D01*
X4610000D01*
D02*
G37*
G36*
X4826740Y3341412D02*
X4707328Y3222000D01*
X4540152D01*
X4420740Y3341412D01*
Y3508588D01*
X4540152Y3628000D01*
X4707328D01*
X4826740Y3508588D01*
Y3341412D01*
D02*
G37*
D10*
X2715516Y3108500D02*
Y3173654D01*
X2711500Y3108500D02*
X2715516D01*
X2711500Y2911500D02*
Y3108500D01*
Y2911500D02*
X2715516D01*
Y2846346D02*
Y2911500D01*
Y2846346D02*
X2944484D01*
Y2911500D01*
X2948500D01*
Y3108500D01*
X2944484D02*
X2948500D01*
X2944484D02*
Y3173654D01*
X2715516D02*
X2944484D01*
X4707328Y3222000D02*
X4826740Y3341412D01*
Y3508588D01*
X4707328Y3628000D02*
X4826740Y3508588D01*
X4540152Y3628000D02*
X4707328D01*
X4420740Y3508588D02*
X4540152Y3628000D01*
X4420740Y3341412D02*
Y3508588D01*
Y3341412D02*
X4540152Y3222000D01*
X4707328D01*
X3230000Y2715000D02*
X4610000D01*
X3230000D02*
Y2747500D01*
Y3062500D02*
Y3095000D01*
X4610000D01*
Y3062500D02*
Y3095000D01*
Y2715000D02*
Y2747500D01*
X4655000D01*
X3185000D02*
X3230000D01*
X3185000D02*
Y3062500D01*
X3230000D01*
X4610000D02*
X4655000D01*
Y2747500D02*
Y3062500D01*
D12*
X2876574Y2342322D02*
Y2507678D01*
X2573426D02*
X2876574D01*
X2573426Y2342322D02*
Y2507678D01*
Y2342322D02*
X2876574D01*
D56*
X3840000Y3510000D02*
Y3740000D01*
X3960000D01*
X3840000Y3510000D02*
X3960000D01*
Y3740000D01*
X2860552Y3579922D02*
X2979448D01*
Y3520078D02*
Y3579922D01*
X2860552Y3520078D02*
X2979448D01*
X2860552D02*
Y3579922D01*
X2535550Y3074922D02*
X2654448D01*
Y3015078D02*
Y3074922D01*
X2535550Y3015078D02*
X2654448D01*
X2535550D02*
Y3074922D01*
X2860552Y3679922D02*
X2979448D01*
Y3620078D02*
Y3679922D01*
X2860552Y3620078D02*
X2979448D01*
X2860552D02*
Y3679922D01*
X2794882Y2739410D02*
X2905118D01*
X2794882Y2790590D02*
X2905118D01*
X2794882Y2739410D02*
Y2790590D01*
X2905118Y2739410D02*
Y2790590D01*
X2535552Y2994922D02*
X2654448D01*
Y2935078D02*
Y2994922D01*
X2535552Y2935078D02*
X2654448D01*
X2535552D02*
Y2994922D01*
X2729684Y2605552D02*
Y2674448D01*
X2599764D02*
X2729684D01*
X2599764Y2605552D02*
Y2674448D01*
Y2605552D02*
X2729684D01*
D57*
X2429174Y3014134D02*
Y3145866D01*
X2490826D01*
Y3014134D02*
Y3145866D01*
X2429174Y3014134D02*
X2490826D01*
X2429174Y2992402D02*
X2490826D01*
X2429174Y2860670D02*
Y2992402D01*
Y2860670D02*
X2490826D01*
Y2992402D01*
M02*
